<svg version="1.1" id="Layer_1" xmlns="http://www.w3.org/2000/svg" xmlns:xlink="http://www.w3.org/1999/xlink" x="0px" y="0px"
	 width="100%" viewBox="0 0 1280 1257" enable-background="new 0 0 1280 1257" xml:space="preserve">
<path fill="#CB4A32" opacity="1.000000" stroke="none" 
	d="
M1281.000000,166.000015 
	C1281.000000,463.026855 1281.000000,760.053711 1280.662842,1057.307373 
	C1279.885010,1058.186279 1279.264038,1058.779907 1279.030029,1059.499146 
	C1273.438843,1076.682739 1255.807129,1088.162964 1237.837646,1088.137695 
	C1072.186401,1087.904053 906.534607,1088.000000 740.882996,1088.000000 
	C738.762329,1088.000000 736.641724,1088.000000 733.991028,1088.000000 
	C733.991028,1143.247559 733.991028,1197.984863 733.991028,1252.837280 
	C723.612854,1251.140747 713.751465,1249.675781 703.947693,1247.893677 
	C686.413513,1244.706177 668.938171,1241.192383 651.393677,1238.065063 
	C631.577637,1234.532593 611.691467,1231.393066 591.874817,1227.864136 
	C574.324646,1224.738892 556.851440,1221.181763 539.301392,1218.055908 
	C519.484375,1214.526001 499.598724,1211.381104 479.781250,1207.853516 
	C460.304016,1204.386475 440.895966,1200.530640 421.418732,1197.063599 
	C401.592010,1193.534424 381.697296,1190.387573 361.870819,1186.857178 
	C344.323578,1183.732788 326.852936,1180.178223 309.305328,1177.056030 
	C289.489044,1173.530396 269.603149,1170.395752 249.787094,1166.868652 
	C230.305206,1163.401001 210.894302,1159.534546 191.413055,1156.063110 
	C171.591522,1152.531006 151.704834,1149.365234 131.878571,1145.858643 
	C112.072632,1142.355835 92.307434,1138.622681 72.522118,1135.002808 
	C58.042900,1132.353760 43.580345,1129.605591 29.071455,1127.129639 
	C19.750822,1125.539062 10.359589,1124.362305 1.000000,1123.000000 
	C1.000000,792.639771 1.000000,462.279602 1.416474,131.456573 
	C6.791412,130.003876 11.730493,128.901489 16.711691,128.043655 
	C38.486809,124.293686 60.294998,120.732208 82.050476,116.872871 
	C99.594254,113.760666 117.055710,110.184959 134.597458,107.060699 
	C154.410187,103.531967 174.292923,100.396317 194.105927,96.869057 
	C211.652618,93.745262 229.121826,90.186172 246.668304,87.061119 
	C266.487732,83.531265 286.375977,80.388214 306.195557,76.859161 
	C323.735840,73.735970 341.197540,70.170601 358.739929,67.060066 
	C380.491241,63.203236 402.310577,59.730194 424.061676,55.872238 
	C441.610565,52.759617 459.078125,49.188759 476.624939,46.063648 
	C496.437164,42.535076 516.318665,39.395321 536.130920,35.866962 
	C553.674438,32.742661 571.138611,29.172443 588.684387,26.061436 
	C610.440125,22.203951 632.258972,18.703630 654.022400,14.888453 
	C676.083191,11.021151 698.112427,6.973036 720.138916,2.913744 
	C720.852600,2.782212 721.383789,1.660280 722.000000,1.000017 
	C725.695312,1.000000 729.390564,1.000000 733.542419,1.468658 
	C733.998962,46.510342 733.998962,91.083366 733.998962,135.990967 
	C736.838440,135.990967 738.982178,135.990967 741.125916,135.990967 
	C905.222107,135.990967 1069.318237,135.976227 1233.414429,136.058167 
	C1238.643311,136.060776 1244.016846,136.463501 1249.072998,137.700912 
	C1263.825806,141.311493 1273.725708,150.625717 1279.112793,164.814728 
	C1279.323242,165.368759 1280.352295,165.611984 1281.000000,166.000015 
M895.500000,936.000000 
	C841.754761,936.000000 788.009583,936.000000 734.288391,936.000000 
	C734.288391,972.363770 734.288391,1007.953125 734.288391,1043.636230 
	C902.616272,1043.636230 1070.648438,1043.636230 1238.576904,1043.636230 
	C1238.576904,755.915344 1238.576904,468.558105 1238.576904,181.316559 
	C1070.239014,181.316559 902.324463,181.316559 734.287292,181.316559 
	C734.287292,246.161667 734.287292,310.690491 734.287292,375.712585 
	C769.338745,336.531281 812.533691,316.315552 865.147461,315.169678 
	C865.147461,375.026886 865.147461,434.281036 865.147461,494.132141 
	C923.287964,494.132141 981.000000,494.132141 1038.698608,494.132141 
	C1039.569702,555.831238 1004.233521,633.871338 921.007202,663.352539 
	C860.380798,684.828247 786.497498,671.280457 734.366943,612.490540 
	C734.366943,658.083862 734.366943,703.390625 734.366943,749.116699 
	C865.657593,749.116699 996.574829,749.116699 1127.652588,749.116699 
	C1127.652588,766.581848 1127.652588,783.625244 1127.652588,801.256958 
	C996.268982,801.256958 865.231689,801.256958 734.326050,801.256958 
	C734.326050,829.439087 734.326050,857.029236 734.326050,885.000000 
	C800.121948,885.000000 865.585510,885.000000 931.049072,885.000000 
	C996.621399,885.000000 1062.193726,885.000000 1127.686035,885.000000 
	C1127.686035,902.402832 1127.686035,918.994202 1127.686035,936.000000 
	C1050.415283,936.000000 973.457642,936.000000 895.500000,936.000000 
M235.353058,680.499756 
	C235.353058,733.577820 235.353058,786.655884 235.353058,839.714294 
	C260.174438,839.714294 284.263855,839.714294 308.903564,839.714294 
	C308.903564,793.384705 308.903564,747.337524 308.903564,701.414490 
	C312.376892,700.891174 315.276642,700.231995 318.205872,700.051880 
	C330.604401,699.289856 343.039612,698.986877 355.406860,697.897278 
	C365.084503,697.044678 374.866241,696.050110 384.283600,693.792053 
	C429.096680,683.046814 458.584076,655.256897 472.271454,611.458191 
	C476.616486,597.554443 478.476776,582.837097 480.994843,568.408447 
	C484.472229,548.482910 483.723724,528.612549 480.146545,508.670532 
	C475.630127,483.492310 464.238586,462.012573 446.772583,443.691925 
	C433.674927,429.953430 418.323730,420.363617 398.489563,420.035095 
	C385.890167,419.826385 373.295929,419.087402 360.697998,419.049194 
	C323.713379,418.936981 286.728088,419.056580 249.743057,419.084351 
	C245.132584,419.087830 240.522125,419.084839 235.353073,419.084839 
	C235.353073,506.315704 235.353073,592.907715 235.353058,680.499756 
z"/>
<path fill="#000000" opacity="1.000000" stroke="none" 
	d="
M1.000000,1123.468628 
	C10.359589,1124.362305 19.750822,1125.539062 29.071455,1127.129639 
	C43.580345,1129.605591 58.042900,1132.353760 72.522118,1135.002808 
	C92.307434,1138.622681 112.072632,1142.355835 131.878571,1145.858643 
	C151.704834,1149.365234 171.591522,1152.531006 191.413055,1156.063110 
	C210.894302,1159.534546 230.305206,1163.401001 249.787094,1166.868652 
	C269.603149,1170.395752 289.489044,1173.530396 309.305328,1177.056030 
	C326.852936,1180.178223 344.323578,1183.732788 361.870819,1186.857178 
	C381.697296,1190.387573 401.592010,1193.534424 421.418732,1197.063599 
	C440.895966,1200.530640 460.304016,1204.386475 479.781250,1207.853516 
	C499.598724,1211.381104 519.484375,1214.526001 539.301392,1218.055908 
	C556.851440,1221.181763 574.324646,1224.738892 591.874817,1227.864136 
	C611.691467,1231.393066 631.577637,1234.532593 651.393677,1238.065063 
	C668.938171,1241.192383 686.413513,1244.706177 703.947693,1247.893677 
	C713.751465,1249.675781 723.612854,1251.140747 733.991028,1252.837280 
	C733.991028,1197.984863 733.991028,1143.247559 733.991028,1088.000000 
	C736.641724,1088.000000 738.762329,1088.000000 740.882996,1088.000000 
	C906.534607,1088.000000 1072.186401,1087.904053 1237.837646,1088.137695 
	C1255.807129,1088.162964 1273.438843,1076.682739 1279.030029,1059.499146 
	C1279.264038,1058.779907 1279.885010,1058.186279 1280.662842,1057.767090 
	C1281.000000,1124.648560 1281.000000,1191.297241 1281.000000,1257.948120 
	C854.333313,1257.950439 427.666656,1257.950439 1.000000,1257.950439 
	C1.000000,1213.246460 1.000000,1168.591797 1.000000,1123.468628 
z"/>
<path fill="#000000" opacity="1.000000" stroke="none" 
	d="
M1281.000000,165.531357 
	C1280.352295,165.611984 1279.323242,165.368759 1279.112793,164.814728 
	C1273.725708,150.625717 1263.825806,141.311493 1249.072998,137.700912 
	C1244.016846,136.463501 1238.643311,136.060776 1233.414429,136.058167 
	C1069.318237,135.976227 905.222107,135.990967 741.125916,135.990967 
	C738.982178,135.990967 736.838440,135.990967 733.998962,135.990967 
	C733.998962,91.083366 733.998962,46.510342 733.999512,1.468658 
	C916.221252,1.000000 1098.442505,1.000000 1281.000000,1.000000 
	C1281.000000,55.687103 1281.000000,110.374893 1281.000000,165.531357 
z"/>
<path fill="#000000" opacity="1.000000" stroke="none" 
	d="
M721.531372,1.000017 
	C721.383789,1.660280 720.852600,2.782212 720.138916,2.913744 
	C698.112427,6.973036 676.083191,11.021151 654.022400,14.888453 
	C632.258972,18.703630 610.440125,22.203951 588.684387,26.061436 
	C571.138611,29.172443 553.674438,32.742661 536.130920,35.866962 
	C516.318665,39.395321 496.437164,42.535076 476.624939,46.063648 
	C459.078125,49.188759 441.610565,52.759617 424.061676,55.872238 
	C402.310577,59.730194 380.491241,63.203236 358.739929,67.060066 
	C341.197540,70.170601 323.735840,73.735970 306.195557,76.859161 
	C286.375977,80.388214 266.487732,83.531265 246.668304,87.061119 
	C229.121826,90.186172 211.652618,93.745262 194.105927,96.869057 
	C174.292923,100.396317 154.410187,103.531967 134.597458,107.060699 
	C117.055710,110.184959 99.594254,113.760666 82.050476,116.872871 
	C60.294998,120.732208 38.486809,124.293686 16.711691,128.043655 
	C11.730493,128.901489 6.791412,130.003876 1.416474,130.996857 
	C1.000000,87.688950 1.000000,44.377899 1.000000,1.000000 
	C241.020889,1.000000 481.041779,1.000000 721.531372,1.000017 
z"/>
<path fill="#000000" opacity="1.000000" stroke="none" 
	d="
M896.000000,936.000000 
	C973.457642,936.000000 1050.415283,936.000000 1127.686035,936.000000 
	C1127.686035,918.994202 1127.686035,902.402832 1127.686035,885.000000 
	C1062.193726,885.000000 996.621399,885.000000 931.049072,885.000000 
	C865.585510,885.000000 800.121948,885.000000 734.326050,885.000000 
	C734.326050,857.029236 734.326050,829.439087 734.326050,801.256958 
	C865.231689,801.256958 996.268982,801.256958 1127.652588,801.256958 
	C1127.652588,783.625244 1127.652588,766.581848 1127.652588,749.116699 
	C996.574829,749.116699 865.657593,749.116699 734.366943,749.116699 
	C734.366943,703.390625 734.366943,658.083862 734.366943,612.490540 
	C786.497498,671.280457 860.380798,684.828247 921.007202,663.352539 
	C1004.233521,633.871338 1039.569702,555.831238 1038.698608,494.132141 
	C981.000000,494.132141 923.287964,494.132141 865.147461,494.132141 
	C865.147461,434.281036 865.147461,375.026886 865.147461,315.169678 
	C812.533691,316.315552 769.338745,336.531281 734.287292,375.712585 
	C734.287292,310.690491 734.287292,246.161667 734.287292,181.316559 
	C902.324463,181.316559 1070.239014,181.316559 1238.576904,181.316559 
	C1238.576904,468.558105 1238.576904,755.915344 1238.576904,1043.636230 
	C1070.648438,1043.636230 902.616272,1043.636230 734.288391,1043.636230 
	C734.288391,1007.953125 734.288391,972.363770 734.288391,936.000000 
	C788.009583,936.000000 841.754761,936.000000 896.000000,936.000000 
M919.252014,292.004364 
	C909.973083,291.218201 900.694092,290.432007 891.255493,289.632324 
	C891.255493,349.955048 891.255493,409.210785 891.255493,468.673523 
	C949.561035,468.673523 1007.609741,468.673523 1066.463501,468.673523 
	C1065.284668,458.179443 1064.313110,448.063263 1062.979370,437.995148 
	C1060.883057,422.171448 1055.943970,407.141632 1049.260376,392.714996 
	C1038.246826,368.942017 1022.975525,348.427948 1002.962463,331.292511 
	C986.795410,317.450226 968.900024,306.865540 948.859070,300.017487 
	C939.471924,296.809906 929.725281,294.654419 919.252014,292.004364 
z"/>
<path fill="#FFFFFF" opacity="1.000000" stroke="none" 
	d="
M235.353058,679.999756 
	C235.353073,592.907715 235.353073,506.315704 235.353073,419.084839 
	C240.522125,419.084839 245.132584,419.087830 249.743057,419.084351 
	C286.728088,419.056580 323.713379,418.936981 360.697998,419.049194 
	C373.295929,419.087402 385.890167,419.826385 398.489563,420.035095 
	C418.323730,420.363617 433.674927,429.953430 446.772583,443.691925 
	C464.238586,462.012573 475.630127,483.492310 480.146545,508.670532 
	C483.723724,528.612549 484.472229,548.482910 480.994843,568.408447 
	C478.476776,582.837097 476.616486,597.554443 472.271454,611.458191 
	C458.584076,655.256897 429.096680,683.046814 384.283600,693.792053 
	C374.866241,696.050110 365.084503,697.044678 355.406860,697.897278 
	C343.039612,698.986877 330.604401,699.289856 318.205872,700.051880 
	C315.276642,700.231995 312.376892,700.891174 308.903564,701.414490 
	C308.903564,747.337524 308.903564,793.384705 308.903564,839.714294 
	C284.263855,839.714294 260.174438,839.714294 235.353058,839.714294 
	C235.353058,786.655884 235.353058,733.577820 235.353058,679.999756 
M310.866547,586.499939 
	C310.866974,596.161316 310.967041,605.824280 310.807861,615.483032 
	C310.759216,618.434937 311.955322,619.864990 314.682007,619.956543 
	C324.948822,620.301758 335.239288,621.079895 345.484131,620.701233 
	C365.679840,619.954895 379.986115,609.908142 388.373047,591.540527 
	C395.188629,576.614197 396.105652,560.696838 394.744232,544.776184 
	C394.057220,536.742493 392.055695,528.412537 388.716125,521.098877 
	C381.617645,505.553192 368.958954,496.671417 351.871399,493.912445 
	C338.091370,491.687531 324.677124,493.744507 310.866547,495.660431 
	C310.866547,525.897522 310.866547,555.698669 310.866547,586.499939 
z"/>
<path fill="#CB4A32" opacity="1.000000" stroke="none" 
	d="
M919.696777,292.013245 
	C929.725281,294.654419 939.471924,296.809906 948.859070,300.017487 
	C968.900024,306.865540 986.795410,317.450226 1002.962463,331.292511 
	C1022.975525,348.427948 1038.246826,368.942017 1049.260376,392.714996 
	C1055.943970,407.141632 1060.883057,422.171448 1062.979370,437.995148 
	C1064.313110,448.063263 1065.284668,458.179443 1066.463501,468.673523 
	C1007.609741,468.673523 949.561035,468.673523 891.255493,468.673523 
	C891.255493,409.210785 891.255493,349.955048 891.255493,289.632324 
	C900.694092,290.432007 909.973083,291.218201 919.696777,292.013245 
z"/>
<path fill="#CB4A32" opacity="1.000000" stroke="none" 
	d="
M310.866547,585.999878 
	C310.866547,555.698669 310.866547,525.897522 310.866547,495.660431 
	C324.677124,493.744507 338.091370,491.687531 351.871399,493.912445 
	C368.958954,496.671417 381.617645,505.553192 388.716125,521.098877 
	C392.055695,528.412537 394.057220,536.742493 394.744232,544.776184 
	C396.105652,560.696838 395.188629,576.614197 388.373047,591.540527 
	C379.986115,609.908142 365.679840,619.954895 345.484131,620.701233 
	C335.239288,621.079895 324.948822,620.301758 314.682007,619.956543 
	C311.955322,619.864990 310.759216,618.434937 310.807861,615.483032 
	C310.967041,605.824280 310.866974,596.161316 310.866547,585.999878 
z"/>
</svg>