<svg version="1.1" id="Layer_1" xmlns="http://www.w3.org/2000/svg" xmlns:xlink="http://www.w3.org/1999/xlink" x="0px" y="0px"
	 width="100%" viewBox="0 0 233 216" enable-background="new 0 0 233 216" xml:space="preserve">
<path fill="#41A5F0" opacity="1.000000" stroke="none" 
	d="
M234.000000,11.000000 
	C234.000000,25.020895 234.000000,39.041790 233.531342,53.532303 
	C199.048340,54.003113 165.033981,54.004299 131.012817,53.604794 
	C130.206741,51.324753 129.846344,49.019691 128.519669,47.651897 
	C125.463882,44.501411 121.748512,43.683159 117.035507,43.805355 
	C98.075478,44.296955 79.095123,44.030014 60.122536,43.965958 
	C58.523632,43.960560 56.926666,43.380444 55.238346,42.602795 
	C55.128983,34.663074 55.449429,27.167223 54.995678,19.718531 
	C54.542309,12.276154 55.161907,5.563169 62.000000,1.000000 
	C116.020897,1.000000 170.041794,1.000000 224.548630,1.194697 
	C225.034576,1.389394 225.078476,1.777844 225.182739,2.152359 
	C226.462173,5.654278 228.849426,5.230760 231.387756,4.547235 
	C231.462570,4.510677 231.628860,4.502321 231.470764,4.879761 
	C229.817261,7.251779 228.321838,9.246356 226.464508,11.723644 
	C228.877548,16.939529 231.453659,12.258069 234.000000,11.000000 
z"/>
<path fill="#113F93" opacity="1.000000" stroke="none" 
	d="
M234.000000,165.000000 
	C234.000000,179.020889 234.000000,193.041794 233.999512,207.895294 
	C231.666000,211.485275 229.333008,214.242645 227.000000,217.000000 
	C172.979111,217.000000 118.958214,217.000000 64.434288,216.653259 
	C57.971470,211.161621 55.858009,204.731567 56.910988,196.939011 
	C57.396351,193.347061 56.978603,189.633102 56.976707,185.728958 
	C56.983070,185.483459 56.995571,184.991837 57.424026,184.991470 
	C59.566711,184.991913 61.280945,184.992737 63.464302,184.996933 
	C80.292458,184.996017 96.651489,184.991745 113.382294,184.988007 
	C114.497612,184.985947 115.241158,184.983322 116.381622,184.987793 
	C118.187233,184.331940 119.595924,183.669022 121.172188,182.761993 
	C121.893082,182.346680 122.446396,182.175491 123.006676,182.371292 
	C124.798714,185.251648 126.928970,184.764908 128.635498,181.547607 
	C129.760529,179.426605 131.028336,177.381302 132.469681,174.891953 
	C129.079254,171.615585 131.740952,170.223038 135.403183,169.393280 
	C136.825378,169.071075 138.336212,168.975464 139.797852,169.026993 
	C142.662506,169.127991 144.203522,168.019272 144.469238,165.000870 
	C174.625229,165.000336 204.312622,165.000168 234.000000,165.000000 
z"/>
<path fill="#2D7DD6" opacity="1.000000" stroke="none" 
	d="
M234.000000,56.000000 
	C234.000000,73.354225 234.000000,90.708458 233.531342,108.532158 
	C202.378525,109.016533 171.694382,109.031441 140.590302,109.031189 
	C138.769791,109.024010 137.369217,109.031990 135.555817,109.026520 
	C133.762589,108.997833 132.382202,108.982582 130.999374,108.725655 
	C130.996948,108.483978 131.001221,108.000610 131.396454,107.988380 
	C135.445099,105.935402 134.739441,102.336700 135.007477,99.063896 
	C136.101135,85.709900 132.294296,71.999863 137.926147,58.958931 
	C138.288834,58.119106 137.991516,56.994247 138.469803,56.001476 
	C170.625595,56.000645 202.312790,56.000320 234.000000,56.000000 
z"/>
<path fill="#195ABE" opacity="1.000000" stroke="none" 
	d="
M135.968643,109.039963 
	C137.369217,109.031990 138.769791,109.024010 140.603424,109.441681 
	C142.773224,110.578102 144.507309,111.900864 146.247116,111.908463 
	C175.497665,112.036156 204.748901,111.999878 234.000000,112.000000 
	C234.000000,128.020889 234.000000,144.041794 233.531342,160.531342 
	C199.046265,160.999588 165.029846,160.999176 131.009888,160.530273 
	C131.005249,143.375443 131.004150,126.689117 131.387894,110.002220 
	C133.171371,109.681091 134.570007,109.360535 135.968643,109.039963 
z"/>
<path fill="#FCFEFF" opacity="1.000000" stroke="none" 
	d="
M61.531342,1.000000 
	C55.161907,5.563169 54.542309,12.276154 54.995678,19.718531 
	C55.449429,27.167223 55.128983,34.663074 55.156807,43.030537 
	C55.194557,45.659573 55.223392,47.396324 54.884979,49.352932 
	C40.490395,49.650040 26.460484,49.607006 12.437882,49.906315 
	C9.642085,49.965988 6.874216,51.334053 3.706842,52.082024 
	C2.546811,52.043499 1.773406,52.021748 1.000000,52.000000 
	C1.000000,35.066677 1.000000,18.133352 1.000000,1.000000 
	C21.020451,1.000000 41.041565,1.000000 61.531342,1.000000 
M52.999939,40.340111 
	C52.999939,42.516197 52.999939,44.692284 52.999939,46.868370 
	C53.232185,46.858639 53.464432,46.848907 53.696678,46.839172 
	C53.696678,37.615810 53.696678,28.392445 53.696678,19.169081 
	C53.464497,19.168261 53.232311,19.167440 53.000130,19.166620 
	C53.000130,25.905643 53.000130,32.644665 52.999939,40.340111 
z"/>
<path fill="#FDFEFE" opacity="1.000000" stroke="none" 
	d="
M52.000000,217.000000 
	C35.077042,217.000000 18.154081,217.000000 1.000000,217.000000 
	C1.000000,201.979889 1.000000,186.958603 1.323315,171.441559 
	C2.437999,170.286240 3.229368,169.626663 4.328178,168.839294 
	C5.475381,168.453079 6.315142,168.194672 7.610674,167.986328 
	C23.362623,168.045822 38.658802,168.055237 54.142063,168.217819 
	C54.572861,168.594559 54.855270,168.745987 55.160378,169.233139 
	C55.229195,172.419174 55.314014,175.197342 55.290359,178.409576 
	C55.251278,181.223648 55.320675,183.603622 55.283146,186.439407 
	C55.101067,191.596161 55.025917,196.297134 54.546425,201.015137 
	C50.263744,202.449753 52.390247,205.596420 52.209038,208.017822 
	C51.985832,211.000397 52.056396,214.004944 52.000000,217.000000 
z"/>
<path fill="#2065C3" opacity="1.000000" stroke="none" 
	d="
M1.000000,111.000000 
	C1.000000,95.979103 1.000000,80.958214 1.362274,65.461067 
	C2.930576,64.167953 4.136604,63.351086 5.116014,62.687710 
	C6.122077,63.493263 7.062582,64.246330 8.410250,64.999374 
	C10.846848,63.861645 12.876283,62.723934 14.905716,61.586220 
	C13.936599,60.389454 12.967481,59.192688 12.010021,57.609474 
	C13.187321,56.672848 14.362063,55.640923 15.516898,55.662739 
	C18.996008,55.728462 22.462221,56.319447 25.943768,56.475040 
	C27.895765,56.562275 30.087601,55.556213 31.792400,56.143272 
	C38.307785,58.386887 43.944302,54.600914 50.398209,53.946178 
	C52.597988,52.165051 57.145912,54.736778 57.458328,49.946442 
	C60.268753,49.968224 62.635902,49.984200 65.004562,50.418579 
	C64.735909,53.586601 66.349655,54.348255 68.626083,53.965027 
	C72.053497,53.388039 74.021111,54.848190 75.001221,58.412735 
	C75.240662,61.902668 75.096222,64.732224 70.587814,65.001907 
	C63.701347,68.530914 57.672935,64.821281 51.546959,62.695862 
	C51.422329,63.147068 51.297695,63.598274 51.173065,64.049484 
	C52.048519,65.340477 52.923973,66.631477 54.042927,68.281555 
	C52.205280,68.803810 50.771008,69.211426 48.380135,69.890915 
	C49.903267,70.540070 50.455879,70.775597 51.005608,71.377151 
	C51.340305,72.832001 51.677895,73.920822 52.003235,75.378433 
	C51.330017,77.494690 50.669048,79.242149 49.618179,80.994476 
	C48.233486,81.371124 46.348610,81.835808 46.376274,82.100899 
	C46.856285,86.700546 42.689533,88.680298 40.652107,92.001282 
	C39.870735,91.991959 39.424206,91.984093 38.975368,91.635757 
	C38.537300,88.508835 37.035049,87.288567 34.077789,87.631302 
	C33.482399,83.990097 33.000141,80.756493 32.387131,76.646172 
	C28.018034,77.098984 23.532616,77.563850 18.683315,78.082886 
	C17.938595,79.080025 17.183376,80.048676 17.245968,80.961235 
	C17.446859,83.890167 17.851894,86.816948 18.398251,89.702888 
	C18.556217,90.537308 19.455015,91.231476 20.010124,92.387398 
	C20.977793,99.636864 17.897408,105.166779 13.211683,111.000000 
	C9.823814,111.000000 5.411907,111.000000 1.000000,111.000000 
M40.419544,85.599472 
	C42.602772,82.016243 42.602772,82.016243 38.484283,81.334206 
	C38.926472,82.846268 39.320988,84.195312 40.419544,85.599472 
z"/>
<path fill="#1D60C1" opacity="1.000000" stroke="none" 
	d="
M1.000000,111.468658 
	C5.411907,111.000000 9.823814,111.000000 13.211683,111.000000 
	C17.897408,105.166779 20.977793,99.636864 20.357660,92.387405 
	C21.172747,91.973419 21.636238,91.956894 22.059862,91.964890 
	C22.019997,91.989418 22.062962,91.906250 22.042004,92.342361 
	C22.032736,93.609726 22.071283,94.441612 22.051664,95.272118 
	C21.941162,99.950050 26.888996,105.279449 20.266731,109.173531 
	C19.970306,109.347839 19.995447,110.507790 20.224352,111.062836 
	C21.384686,113.876373 22.661903,116.641716 23.790745,119.182198 
	C24.958704,117.039520 26.155254,114.844391 27.349287,112.692451 
	C27.346769,112.735641 27.268923,112.773399 27.181831,113.234009 
	C26.646521,117.248322 28.160957,121.241287 24.376333,124.085892 
	C23.806330,124.514328 24.400200,126.827469 24.820797,128.152924 
	C25.352293,129.827881 26.258125,131.384048 26.731825,133.188904 
	C25.662102,134.550827 24.863049,135.715302 24.024111,136.937881 
	C21.247042,135.762802 19.029509,133.664444 16.518660,137.392014 
	C15.210558,139.334015 10.776352,139.371597 9.808421,141.300308 
	C7.677809,145.545792 4.389751,144.923401 1.000000,145.000000 
	C1.000000,133.979111 1.000000,122.958214 1.000000,111.468658 
z"/>
<path fill="#1B5ABE" opacity="1.000000" stroke="none" 
	d="
M1.000000,145.466858 
	C4.389751,144.923401 7.677809,145.545792 9.808421,141.300308 
	C10.776352,139.371597 15.210558,139.334015 16.518660,137.392014 
	C19.029509,133.664444 21.247042,135.762802 24.024111,136.937881 
	C24.863049,135.715302 25.662102,134.550827 27.096619,133.231888 
	C30.246651,134.192184 32.335926,135.476059 32.127277,138.850479 
	C32.065010,139.857513 33.337051,140.947052 34.022644,142.319183 
	C33.668320,146.366302 32.759155,149.550629 28.160627,150.097366 
	C26.844339,150.253876 25.653141,151.421173 24.393692,152.104950 
	C20.826750,154.041489 17.408669,157.108795 13.645955,157.618195 
	C8.582628,158.303680 7.401014,160.924637 6.655169,165.007339 
	C5.888362,165.014343 5.450016,165.019775 4.964952,164.671341 
	C3.892293,163.252777 2.866352,162.188095 1.621699,161.151184 
	C1.402988,161.178955 1.000000,161.000000 1.000000,161.000000 
	C1.000000,155.977905 1.000000,150.955811 1.000000,145.466858 
z"/>
<path fill="#1359B6" opacity="1.000000" stroke="none" 
	d="
M234.000000,111.625000 
	C204.748901,111.999878 175.497665,112.036156 146.247116,111.908463 
	C144.507309,111.900864 142.773224,110.578102 141.023346,109.456833 
	C171.694382,109.031441 202.378525,109.016533 233.531342,109.000816 
	C234.000000,109.750000 234.000000,110.500000 234.000000,111.625000 
z"/>
<path fill="#2367C8" opacity="1.000000" stroke="none" 
	d="
M50.012905,53.994549 
	C43.944302,54.600914 38.307785,58.386887 31.792400,56.143272 
	C30.087601,55.556213 27.895765,56.562275 25.943768,56.475040 
	C22.462221,56.319447 18.996008,55.728462 15.516898,55.662739 
	C14.362063,55.640923 13.187321,56.672848 11.648540,57.653236 
	C10.184630,60.388763 9.093859,62.694077 8.003086,64.999390 
	C7.062582,64.246330 6.122077,63.493263 5.116014,62.687710 
	C4.136604,63.351086 2.930576,64.167953 1.362274,64.992409 
	C1.000000,62.629444 1.000000,60.258884 1.263799,57.325840 
	C1.948428,56.130825 2.369258,55.498302 3.045146,55.006180 
	C3.891893,55.354012 4.770019,55.917118 5.027604,55.709679 
	C6.432766,54.578060 7.685250,53.256855 9.245260,52.007278 
	C9.670306,52.017365 9.840333,52.021027 10.268997,52.299278 
	C12.681409,52.390461 14.835183,52.207058 17.419315,52.018532 
	C20.238617,51.683201 22.627562,51.352985 25.465374,51.022392 
	C28.608156,51.041573 31.302073,51.061131 34.004581,51.458092 
	C35.867523,57.820663 39.134739,54.042999 42.408913,52.992516 
	C44.870556,52.662270 46.930576,52.331909 49.099266,52.260311 
	C49.476257,53.010899 49.744579,53.502724 50.012905,53.994549 
z"/>
<path fill="#205ABA" opacity="1.000000" stroke="none" 
	d="
M131.013428,160.998779 
	C165.029846,160.999176 199.046265,160.999588 233.531342,161.000000 
	C234.000000,161.444443 234.000000,161.888901 233.531342,162.666977 
	C202.037964,163.024231 171.013245,163.047852 139.541016,163.050354 
	C136.405960,162.999374 133.718384,162.969513 131.020752,162.616974 
	C131.011597,161.862457 131.012512,161.430618 131.013428,160.998779 
z"/>
<path fill="#073D98" opacity="1.000000" stroke="none" 
	d="
M139.988525,163.071472 
	C171.013245,163.047852 202.037964,163.024231 233.531342,163.000305 
	C234.000000,163.444443 234.000000,163.888901 234.000000,164.666672 
	C204.312622,165.000168 174.625229,165.000336 144.096115,164.999481 
	C142.165756,164.356125 141.077133,163.713806 139.988525,163.071472 
z"/>
<path fill="#4EA9F7" opacity="1.000000" stroke="none" 
	d="
M131.019638,54.005482 
	C165.033981,54.004299 199.048340,54.003113 233.531342,54.000961 
	C234.000000,54.000000 234.000000,54.500000 233.531342,54.750381 
	C200.049042,55.012035 167.035416,55.023304 133.642975,55.012978 
	C132.506958,55.003220 131.749725,55.015053 130.756607,55.003395 
	C130.520721,54.979908 130.048737,54.935165 130.151459,54.725853 
	C130.452423,54.260944 130.707565,54.090591 131.019638,54.005482 
z"/>
<path fill="#247ACC" opacity="1.000000" stroke="none" 
	d="
M134.021774,55.034573 
	C167.035416,55.023304 200.049042,55.012035 233.531342,55.000381 
	C234.000000,55.000000 234.000000,55.500000 234.000000,55.750000 
	C202.312790,56.000320 170.625595,56.000645 138.106140,56.000530 
	C136.189850,55.678253 135.105820,55.356415 134.021774,55.034573 
z"/>
<path fill="#153A7D" opacity="1.000000" stroke="none" 
	d="
M54.950768,200.998093 
	C55.025917,196.297134 55.101067,191.596161 55.546570,186.426315 
	C56.268063,185.963104 56.619202,185.968781 56.970345,185.974457 
	C56.978603,189.633102 57.396351,193.347061 56.910988,196.939011 
	C55.858009,204.731567 57.971470,211.161621 63.965630,216.653259 
	C62.933331,217.000000 61.866661,217.000000 60.321693,216.655029 
	C55.302696,212.135834 54.948002,206.624069 54.950768,200.998093 
z"/>
<path fill="#F6F7FA" opacity="1.000000" stroke="none" 
	d="
M54.546425,201.015137 
	C54.948002,206.624069 55.302696,212.135834 59.921696,216.655029 
	C57.629444,217.000000 55.258884,217.000000 52.444160,217.000000 
	C52.056396,214.004944 51.985832,211.000397 52.209038,208.017822 
	C52.390247,205.596420 50.263744,202.449753 54.546425,201.015137 
z"/>
<path fill="#4BA1EA" opacity="1.000000" stroke="none" 
	d="
M234.000000,10.666667 
	C231.453659,12.258069 228.877548,16.939529 226.464508,11.723644 
	C228.321838,9.246356 229.817261,7.251779 231.738480,5.069214 
	C232.776184,6.254153 233.388092,7.627079 234.000000,9.000003 
	C234.000000,9.444445 234.000000,9.888889 234.000000,10.666667 
z"/>
<path fill="#DDEEF8" opacity="1.000000" stroke="none" 
	d="
M227.497925,217.000000 
	C229.333008,214.242645 231.666000,211.485275 233.999512,208.363953 
	C234.000000,210.904037 234.000000,213.808075 234.000000,217.000000 
	C232.002823,217.000000 229.999329,217.000000 227.497925,217.000000 
z"/>
<path fill="#E9FBFE" opacity="1.000000" stroke="none" 
	d="
M234.000000,8.505270 
	C233.388092,7.627079 232.776184,6.254153 231.896576,4.691774 
	C231.628860,4.502321 231.462570,4.510677 231.331696,4.249625 
	C230.152832,3.300061 229.104843,2.611548 228.021240,1.693595 
	C227.985626,1.464154 228.000000,1.000000 228.000000,1.000000 
	C229.927490,1.000000 231.854965,1.000000 234.000000,1.000000 
	C234.000000,3.334748 234.000000,5.672641 234.000000,8.505270 
z"/>
<path fill="#DBF4FD" opacity="1.000000" stroke="none" 
	d="
M1.000000,161.428467 
	C1.000000,161.000000 1.402988,161.178955 1.620412,161.494339 
	C2.902199,163.146545 3.966561,164.483368 5.134271,166.111023 
	C5.785769,166.642838 6.333919,166.883835 6.960623,167.324219 
	C7.039176,167.523590 7.154905,167.936264 7.154904,167.936264 
	C6.315142,168.194672 5.475381,168.453079 4.181061,168.554840 
	C2.817668,167.932114 1.908836,167.466049 1.000002,167.000000 
	C1.000000,165.285645 1.000000,163.571289 1.000000,161.428467 
z"/>
<path fill="#BCE6F9" opacity="1.000000" stroke="none" 
	d="
M2.790088,54.865776 
	C2.369258,55.498302 1.948428,56.130825 1.263799,56.881676 
	C1.000000,55.611111 1.000000,54.222221 1.000000,52.416664 
	C1.773406,52.021748 2.546811,52.043499 3.693305,52.406036 
	C3.640957,53.453144 3.215523,54.159458 2.790088,54.865776 
z"/>
<path fill="#FBFFEF" opacity="1.000000" stroke="none" 
	d="
M1.000002,167.399994 
	C1.908836,167.466049 2.817668,167.932114 3.873619,168.682632 
	C3.229368,169.626663 2.437999,170.286240 1.323315,170.972900 
	C1.000000,169.933334 1.000000,168.866653 1.000002,167.399994 
z"/>
<path fill="#89CEFF" opacity="1.000000" stroke="none" 
	d="
M227.625000,1.000000 
	C228.000000,1.000000 227.985626,1.464154 227.648315,1.725290 
	C226.566833,1.916899 225.822647,1.847372 225.078476,1.777844 
	C225.078476,1.777844 225.034576,1.389394 225.017288,1.194697 
	C225.750000,1.000000 226.500000,1.000000 227.625000,1.000000 
z"/>
<path fill="#3A93D8" opacity="1.000000" stroke="none" 
	d="
M131.012817,53.604794 
	C130.707565,54.090591 130.452423,54.260944 129.739655,54.754986 
	C128.132431,55.026722 127.039757,55.060013 125.651047,55.052471 
	C124.963821,54.941158 124.572624,54.870682 124.074921,54.464859 
	C122.132706,50.243935 118.842369,49.520130 114.529068,49.983097 
	C97.708275,49.976048 81.355659,49.988110 65.003052,50.000175 
	C62.635902,49.984200 60.268753,49.968224 57.313934,49.732445 
	C56.234921,49.386116 55.743572,49.259598 55.252228,49.133080 
	C55.223392,47.396324 55.194557,45.659573 55.247261,43.495075 
	C56.926666,43.380444 58.523632,43.960560 60.122536,43.965958 
	C79.095123,44.030014 98.075478,44.296955 117.035507,43.805355 
	C121.748512,43.683159 125.463882,44.501411 128.519669,47.651897 
	C129.846344,49.019691 130.206741,51.324753 131.012817,53.604794 
z"/>
<path fill="#4BA1EA" opacity="1.000000" stroke="none" 
	d="
M225.182739,2.152359 
	C225.822647,1.847372 226.566833,1.916899 227.683929,1.954731 
	C229.104843,2.611548 230.152832,3.300061 231.256897,4.286183 
	C228.849426,5.230760 226.462173,5.654278 225.182739,2.152359 
z"/>
<path fill="#0C3376" opacity="1.000000" stroke="none" 
	d="
M122.999710,182.004318 
	C122.446396,182.175491 121.893082,182.346680 120.776642,182.760071 
	C118.803909,183.661743 117.394302,184.321228 115.984695,184.980713 
	C115.241158,184.983322 114.497612,184.985947 113.286514,184.593781 
	C111.815544,183.801483 110.813919,183.062958 109.808472,183.057709 
	C95.330208,182.982193 80.851028,182.960999 66.373543,183.090698 
	C65.241829,183.100815 64.121040,184.330612 62.995178,184.993561 
	C61.280945,184.992737 59.566711,184.991913 57.424309,184.553192 
	C56.985687,182.067047 56.975231,180.018829 56.973038,177.975830 
	C56.981293,177.981064 56.972954,177.967316 57.425579,177.978241 
	C70.449799,178.326508 83.021141,178.673538 95.593102,178.996567 
	C100.891724,179.132721 106.213028,178.955383 111.486267,179.384537 
	C120.888176,180.149689 124.260841,177.743637 125.224609,168.979813 
	C125.459000,168.974380 125.927711,168.987595 126.229332,169.246429 
	C128.460449,174.549301 125.671532,178.260269 122.999710,182.004318 
z"/>
<path fill="#0E3E8B" opacity="1.000000" stroke="none" 
	d="
M123.006676,182.371292 
	C125.671532,178.260269 128.460449,174.549301 126.234573,168.822235 
	C125.938873,166.445465 125.939545,164.751755 126.363525,163.038391 
	C128.201492,162.992386 129.616165,162.966019 131.030823,162.939636 
	C133.718384,162.969513 136.405960,162.999374 139.541016,163.050354 
	C141.077133,163.713806 142.165756,164.356125 143.627502,164.999832 
	C144.203522,168.019272 142.662506,169.127991 139.797852,169.026993 
	C138.336212,168.975464 136.825378,169.071075 135.403183,169.393280 
	C131.740952,170.223038 129.079254,171.615585 132.469681,174.891953 
	C131.028336,177.381302 129.760529,179.426605 128.635498,181.547607 
	C126.928970,184.764908 124.798714,185.251648 123.006676,182.371292 
z"/>
<path fill="#0F3A86" opacity="1.000000" stroke="none" 
	d="
M63.464302,184.996918 
	C64.121040,184.330612 65.241829,183.100815 66.373543,183.090698 
	C80.851028,182.960999 95.330208,182.982193 109.808472,183.057709 
	C110.813919,183.062958 111.815544,183.801483 112.914734,184.593231 
	C96.651489,184.991745 80.292458,184.996017 63.464302,184.996918 
z"/>
<path fill="#0A2F69" opacity="1.000000" stroke="none" 
	d="
M56.964779,177.970612 
	C56.975231,180.018829 56.985687,182.067047 56.995857,184.553558 
	C56.995571,184.991837 56.983070,185.483459 56.976707,185.728958 
	C56.619202,185.968781 56.268063,185.963104 55.653496,185.970520 
	C55.320675,183.603622 55.251278,181.223648 55.551361,178.394104 
	C56.268822,177.953232 56.616798,177.961914 56.964779,177.970612 
z"/>
<path fill="#0F3A86" opacity="1.000000" stroke="none" 
	d="
M116.381622,184.987793 
	C117.394302,184.321228 118.803909,183.661743 120.609062,183.004181 
	C119.595924,183.669022 118.187233,184.331940 116.381622,184.987793 
z"/>
<path fill="#296FC0" opacity="1.000000" stroke="none" 
	d="
M125.947075,55.093307 
	C127.039757,55.060013 128.132431,55.026722 129.636932,54.964294 
	C130.048737,54.935165 130.520721,54.979908 130.759399,55.469231 
	C130.999115,73.305908 131.000168,90.653259 131.001221,108.000610 
	C131.001221,108.000610 130.996948,108.483978 131.000427,108.750748 
	C131.003922,109.017517 130.998398,109.066719 130.588379,109.043213 
	C128.809830,109.013512 127.441292,109.007317 126.032669,108.533493 
	C125.965073,91.062355 125.937569,74.058838 125.931412,56.728203 
	C125.950867,55.965153 125.948975,55.529232 125.947075,55.093307 
z"/>
<path fill="#2D7BCF" opacity="1.000000" stroke="none" 
	d="
M131.396454,107.988380 
	C131.000168,90.653259 130.999115,73.305908 130.995270,55.492722 
	C131.749725,55.015053 132.506958,55.003220 133.642975,55.012978 
	C135.105820,55.356415 136.189850,55.678253 137.637558,56.001038 
	C137.991516,56.994247 138.288834,58.119106 137.926147,58.958931 
	C132.294296,71.999863 136.101135,85.709900 135.007477,99.063896 
	C134.739441,102.336700 135.445099,105.935402 131.396454,107.988380 
z"/>
<path fill="#1359B6" opacity="1.000000" stroke="none" 
	d="
M135.555817,109.026527 
	C134.570007,109.360535 133.171371,109.681091 131.386658,109.768188 
	C131.000595,109.534721 130.998398,109.066719 130.998398,109.066719 
	C130.998398,109.066719 131.003922,109.017517 131.002869,108.992424 
	C132.382202,108.982582 133.762589,108.997833 135.555817,109.026527 
z"/>
<path fill="#1553AB" opacity="1.000000" stroke="none" 
	d="
M130.588379,109.043213 
	C130.998398,109.066719 131.000595,109.534721 131.001831,109.768753 
	C131.004150,126.689117 131.005249,143.375443 131.009888,160.530273 
	C131.012512,161.430618 131.011597,161.862457 131.020752,162.616974 
	C129.616165,162.966019 128.201492,162.992386 126.348969,163.053360 
	C125.911110,163.087952 125.867058,163.084198 125.910500,162.607895 
	C125.914597,144.434235 125.875244,126.736885 125.894577,109.026672 
	C125.953262,109.013809 126.072754,109.001129 126.072754,109.001129 
	C127.441292,109.007317 128.809830,109.013512 130.588379,109.043213 
z"/>
<path fill="#315EA9" opacity="1.000000" stroke="none" 
	d="
M54.884979,49.352932 
	C55.743572,49.259598 56.234921,49.386116 56.870659,49.726631 
	C57.145912,54.736778 52.597988,52.165051 50.398209,53.946178 
	C49.744579,53.502724 49.476257,53.010899 49.426128,52.257149 
	C50.057133,51.842232 50.474701,51.699780 50.875004,51.519085 
	C50.912796,51.502022 50.843647,51.117065 50.821526,51.116795 
	C47.540607,51.076591 44.259449,51.056160 40.542110,51.031319 
	C38.069279,51.045406 36.032631,51.063046 33.995987,51.080688 
	C31.302073,51.061131 28.608156,51.041573 24.997311,51.013092 
	C19.050333,51.336399 14.020288,51.668625 8.990242,52.000851 
	C7.685250,53.256855 6.432766,54.578060 5.027604,55.709679 
	C4.770019,55.917118 3.891893,55.354012 3.045146,55.006180 
	C3.215523,54.159458 3.640957,53.453144 4.079930,52.422813 
	C6.874216,51.334053 9.642085,49.965988 12.437882,49.906315 
	C26.460484,49.607006 40.490395,49.650040 54.884979,49.352932 
z"/>
<path fill="#FFF8F1" opacity="1.000000" stroke="none" 
	d="
M53.000034,39.861900 
	C53.000130,32.644665 53.000130,25.905643 53.000130,19.166620 
	C53.232311,19.167440 53.464497,19.168261 53.696678,19.169081 
	C53.696678,28.392445 53.696678,37.615810 53.696678,46.839172 
	C53.464432,46.848907 53.232185,46.858639 52.999939,46.868370 
	C52.999939,44.692284 52.999939,42.516197 53.000034,39.861900 
z"/>
<path fill="#06214C" opacity="1.000000" stroke="none" 
	d="
M56.973038,177.975830 
	C56.616798,177.961914 56.268822,177.953232 55.659840,177.960022 
	C55.314014,175.197342 55.229195,172.419174 55.289276,169.147339 
	C55.434185,168.653641 55.486767,168.349152 55.897980,168.241425 
	C73.509422,168.104507 90.709831,168.104202 107.909622,168.001129 
	C109.614647,167.990906 111.315910,167.352997 113.333839,166.865143 
	C115.731926,165.450363 117.815102,164.176880 120.326874,162.935226 
	C122.459335,163.006104 124.163193,163.045151 125.867058,163.084198 
	C125.867058,163.084198 125.911110,163.087952 125.925659,163.072998 
	C125.939545,164.751755 125.938873,166.445465 125.932953,168.563385 
	C125.927711,168.987595 125.459000,168.974380 124.869278,169.042206 
	C122.691078,170.380569 121.279678,172.256287 119.474052,172.784561 
	C116.514824,173.650360 113.301323,173.931000 110.191734,173.951385 
	C93.936745,174.058014 77.680382,174.057388 61.425304,173.959549 
	C58.451523,173.941650 56.485924,174.431351 56.972954,177.967316 
	C56.972954,177.967316 56.981293,177.981064 56.973038,177.975830 
z"/>
<path fill="#395591" opacity="1.000000" stroke="none" 
	d="
M7.610675,167.986328 
	C7.154905,167.936264 7.039176,167.523590 7.010859,167.271194 
	C6.982542,167.018799 7.083771,166.913742 7.526152,166.941650 
	C10.655815,166.966827 13.343097,166.964081 16.496044,166.963501 
	C22.302164,166.931488 27.642618,166.897308 33.419518,166.904175 
	C35.896011,166.949081 37.936054,166.952942 40.238182,166.968231 
	C40.674908,166.970520 40.849560,166.961395 41.471596,166.958374 
	C44.603458,166.965424 47.287941,166.966385 50.310532,166.983582 
	C51.099644,166.997910 51.550644,166.996002 52.333748,166.998444 
	C53.108589,167.005905 53.551331,167.009033 54.010590,167.236969 
	C54.027107,167.461777 54.100941,167.906525 54.063332,167.945038 
	C54.025723,167.983536 53.954979,168.064667 53.954979,168.064667 
	C38.658802,168.055237 23.362623,168.045822 7.610675,167.986328 
z"/>
<path fill="#395591" opacity="1.000000" stroke="none" 
	d="
M55.486767,168.349152 
	C55.486767,168.349152 55.434185,168.653641 55.305283,168.739441 
	C54.855270,168.745987 54.572861,168.594559 54.142063,168.217819 
	C53.954979,168.064667 54.025723,167.983536 54.413586,168.043304 
	C55.029888,168.185089 55.258327,168.267120 55.486767,168.349152 
z"/>
<path fill="#F4FAFB" opacity="1.000000" stroke="none" 
	d="
M19.047197,78.028717 
	C23.532616,77.563850 28.018034,77.098984 32.387131,76.646172 
	C33.000141,80.756493 33.482399,83.990097 34.083881,88.019043 
	C35.749924,95.402809 37.296738,101.991249 38.804283,108.831657 
	C38.886578,109.398552 39.008144,109.713478 39.069706,110.433670 
	C39.811947,114.917526 40.614189,118.996094 41.416435,123.074669 
	C41.834991,123.107147 42.253551,123.139618 42.672112,123.172096 
	C43.554062,119.821877 44.436012,116.471664 45.555237,112.838707 
	C46.302666,110.371803 46.812828,108.187637 47.681564,106.012024 
	C50.140594,108.822685 52.241051,111.624802 54.370010,114.464943 
	C53.997009,114.757599 54.480240,114.378464 54.998825,114.408539 
	C54.055401,119.544838 53.076630,124.271904 51.982304,129.307037 
	C51.813232,130.048935 51.759716,130.482758 51.484928,131.189636 
	C51.144249,132.625259 51.024841,133.787842 50.677948,135.220703 
	C49.964096,137.326477 49.477730,139.162003 48.728371,141.052383 
	C48.295471,141.163879 48.125557,141.220520 47.523418,141.191910 
	C44.748913,141.169769 42.406635,141.232864 39.712570,141.231049 
	C38.887619,141.201721 38.414455,141.237320 37.544796,141.183441 
	C34.390793,141.359650 33.640686,139.716385 33.111340,137.350510 
	C31.272913,129.133728 29.232506,120.962166 27.268923,112.773399 
	C27.268923,112.773399 27.346769,112.735641 27.257587,112.309677 
	C25.466591,105.224564 23.764776,98.565407 22.062962,91.906250 
	C22.062962,91.906250 22.019997,91.989418 22.028698,91.552994 
	C21.040665,86.753944 20.043932,82.391335 19.047197,78.028717 
M30.997112,103.041618 
	C30.998121,102.388268 31.132044,101.700294 30.972692,101.088722 
	C30.632626,99.783592 30.216021,98.481873 29.635807,97.272270 
	C29.540064,97.072662 27.931908,97.263962 27.907429,97.416550 
	C27.665794,98.922707 27.416626,100.478554 27.569023,101.979782 
	C27.677475,103.048103 28.397980,104.054276 28.845335,105.088188 
	C29.557060,104.676186 30.268785,104.264183 30.997112,103.041618 
z"/>
<path fill="#1C5FC2" opacity="1.000000" stroke="none" 
	d="
M71.000000,65.002747 
	C75.096222,64.732224 75.240662,61.902668 75.469612,58.412476 
	C87.958878,58.334053 99.979439,58.667484 112.045593,59.313633 
	C112.415413,59.928455 112.739632,60.230564 113.063850,60.532669 
	C113.375900,59.688549 113.687950,58.844429 114.043861,57.685883 
	C114.958969,57.330048 116.013046,56.958759 116.661980,57.318443 
	C117.874252,57.990356 118.851303,59.086658 119.953735,60.405937 
	C119.973099,61.873447 119.964966,62.941399 119.798454,64.097031 
	C119.580727,64.288544 119.445930,64.446251 119.474991,64.486938 
	C119.607201,64.672028 119.785522,64.824181 119.964348,65.455498 
	C119.960960,70.947571 119.940491,75.972336 119.564682,81.006241 
	C117.972916,81.492470 116.736481,81.969559 115.658730,82.385414 
	C114.911148,79.816208 114.265572,77.597549 113.619995,75.378891 
	C113.035126,75.330231 112.450264,75.281563 111.865402,75.232895 
	C114.849342,80.206154 110.982033,81.128174 107.863365,82.864021 
	C108.975380,85.040649 109.986534,87.019852 110.998581,89.431847 
	C110.999489,92.070908 110.999489,94.277161 110.999489,95.763161 
	C108.053848,96.224899 105.995422,96.603706 103.921814,96.859482 
	C100.794891,97.245171 98.785927,96.694771 101.303223,92.960327 
	C101.918816,92.514938 102.236671,92.108116 102.554527,91.701294 
	C102.038284,91.467255 101.522041,91.233215 100.975235,90.702408 
	C100.394501,89.937927 99.844322,89.470230 99.342041,88.654587 
	C100.221741,86.473259 101.053543,84.639877 102.034592,83.143402 
	C102.742302,84.879242 103.300789,86.278168 103.859276,87.677101 
	C104.456558,87.429100 105.053848,87.181107 105.651138,86.933113 
	C104.768272,84.953056 103.885399,82.973000 103.152374,80.653488 
	C102.859200,78.278725 102.780861,76.023651 101.763016,74.334793 
	C101.434471,73.789642 98.636276,74.732910 96.598373,74.996925 
	C95.489258,74.998222 94.749588,74.997894 94.005424,74.599533 
	C94.123314,70.554840 92.105911,70.623764 89.568977,71.468399 
	C89.361626,73.089630 89.175713,74.543304 88.644241,76.002914 
	C87.978584,76.739586 87.658485,77.470322 87.274490,78.618263 
	C86.985733,83.424843 86.760864,87.814209 86.214478,92.059570 
	C84.927780,90.945923 83.962593,89.976265 82.633064,89.000549 
	C81.178123,87.994690 80.087540,86.994904 78.997421,85.535141 
	C78.996956,81.385544 78.996025,77.695923 78.955338,73.684952 
	C78.277046,72.909073 77.638527,72.454536 76.952377,71.669685 
	C75.603569,71.559990 74.302399,71.780602 72.891891,72.221130 
	C72.581604,72.715134 72.319168,72.903702 71.664894,73.005859 
	C70.894203,73.003845 70.453888,73.002686 70.003777,72.644379 
	C69.327980,70.859978 68.661972,69.432739 68.336319,67.969795 
	C69.451111,66.956985 70.225555,65.979866 71.000000,65.002747 
M110.345909,65.293488 
	C109.694778,66.692352 108.926445,68.059616 108.530792,69.527344 
	C108.477249,69.725967 110.294083,70.428787 111.244858,70.898140 
	C111.829735,69.598961 112.414604,68.299789 113.228264,66.444778 
	C113.337318,65.859428 113.446381,65.274086 113.555435,64.688744 
	C112.703339,64.792496 111.851234,64.896248 110.345909,65.293488 
M86.677490,66.999298 
	C84.994148,67.090263 83.310806,67.181229 81.627464,67.272194 
	C88.385406,70.497131 97.944695,69.307037 100.489105,65.594101 
	C96.158798,66.065758 91.872932,66.532562 86.677490,66.999298 
M84.087151,72.288193 
	C83.152237,72.580429 82.217323,72.872665 81.282410,73.164902 
	C81.679527,73.730843 82.076645,74.296783 82.473763,74.862724 
	C83.189919,74.173363 83.906075,73.484009 84.087151,72.288193 
M107.141350,92.600143 
	C107.027847,91.808868 106.914345,91.017593 106.800842,90.226326 
	C106.233894,90.656509 105.666946,91.086700 105.099998,91.516884 
	C105.663376,92.071075 106.226746,92.625267 107.141350,92.600143 
z"/>
<path fill="#2062BD" opacity="1.000000" stroke="none" 
	d="
M112.000000,59.000916 
	C99.979439,58.667484 87.958878,58.334053 75.469925,58.000881 
	C74.021111,54.848190 72.053497,53.388039 68.626083,53.965027 
	C66.349655,54.348255 64.735909,53.586601 65.004562,50.418579 
	C81.355659,49.988110 97.708275,49.976048 114.565048,50.335838 
	C116.389206,52.140800 117.709183,53.573910 119.159897,55.349918 
	C119.502502,57.130672 119.714363,58.568523 119.926231,60.006378 
	C118.851303,59.086658 117.874252,57.990356 116.661980,57.318443 
	C116.013046,56.958759 114.958969,57.330048 113.746086,57.706665 
	C112.936302,58.361549 112.468147,58.681232 112.000000,59.000916 
z"/>
<path fill="#2361BA" opacity="1.000000" stroke="none" 
	d="
M47.322990,106.003471 
	C46.812828,108.187637 46.302666,110.371803 45.228443,112.801857 
	C44.445862,113.030319 44.227341,113.012886 44.008415,112.652023 
	C44.490761,109.600777 43.040710,109.414833 40.999123,110.000931 
	C41.000000,110.000000 40.998226,110.001831 40.999180,109.548592 
	C40.995739,103.397820 40.991344,97.700279 40.986950,92.002747 
	C42.689533,88.680298 46.856285,86.700546 46.376274,82.100899 
	C46.348610,81.835808 48.233486,81.371124 49.614563,80.999374 
	C50.000843,80.999405 50.009720,80.995247 50.005898,81.360977 
	C50.605804,82.818329 51.209538,83.909935 51.848965,85.366417 
	C51.655113,87.156364 51.425571,88.581436 51.109169,90.243881 
	C51.012482,90.649452 51.002659,90.817665 50.716606,91.203964 
	C50.185532,92.949402 49.930687,94.476761 49.492607,96.374573 
	C48.647243,99.831169 47.985115,102.917320 47.322990,106.003471 
z"/>
<path fill="#2063BD" opacity="1.000000" stroke="none" 
	d="
M70.587814,65.001907 
	C70.225555,65.979866 69.451111,66.956985 67.921997,67.977921 
	C61.781055,69.018196 56.394775,70.014664 51.008495,71.011124 
	C50.455879,70.775597 49.903267,70.540070 48.380135,69.890915 
	C50.771008,69.211426 52.205280,68.803810 54.042927,68.281555 
	C52.923973,66.631477 52.048519,65.340477 51.173065,64.049484 
	C51.297695,63.598274 51.422329,63.147068 51.546959,62.695862 
	C57.672935,64.821281 63.701347,68.530914 70.587814,65.001907 
z"/>
<path fill="#1E62CC" opacity="1.000000" stroke="none" 
	d="
M51.005608,71.377151 
	C56.394775,70.014664 61.781055,69.018196 67.581650,68.013611 
	C68.661972,69.432739 69.327980,70.859978 69.651352,72.647308 
	C68.203392,73.338539 67.098061,73.669670 65.620064,73.837509 
	C60.836754,74.119362 56.426117,74.564499 52.015480,75.009636 
	C51.677895,73.920822 51.340305,72.832001 51.005608,71.377151 
z"/>
<path fill="#2F67B6" opacity="1.000000" stroke="none" 
	d="
M52.003235,75.378433 
	C56.426117,74.564499 60.836754,74.119362 65.771584,74.132782 
	C67.183578,75.746399 68.071388,76.901459 68.582100,77.875015 
	C63.690544,77.305809 59.176083,76.918091 54.421608,76.509766 
	C53.941368,78.244743 53.558521,79.627869 53.077610,81.330658 
	C52.983307,82.095558 52.987068,82.540794 52.807888,83.083832 
	C52.624943,83.181648 52.233009,83.317795 52.080822,83.023926 
	C51.288998,82.151787 50.649357,81.573517 50.009720,80.995247 
	C50.009720,80.995247 50.000843,80.999405 50.004463,80.994507 
	C50.669048,79.242149 51.330017,77.494690 52.003235,75.378433 
z"/>
<path fill="#1764CF" opacity="1.000000" stroke="none" 
	d="
M40.652107,92.001282 
	C40.991344,97.700279 40.995739,103.397820 40.687721,109.550209 
	C39.960110,110.012840 39.544907,110.020615 39.129707,110.028397 
	C39.008144,109.713478 38.886578,109.398552 38.850403,108.347916 
	C38.413815,103.960907 37.676525,100.321564 37.472916,96.652611 
	C37.388218,95.126350 38.441738,93.536926 38.977676,91.976219 
	C39.424206,91.984093 39.870735,91.991959 40.652107,92.001282 
z"/>
<path fill="#2963AF" opacity="1.000000" stroke="none" 
	d="
M38.975368,91.635757 
	C38.441738,93.536926 37.388218,95.126350 37.472916,96.652611 
	C37.676525,100.321564 38.413815,103.960907 38.889671,108.095932 
	C37.296738,101.991249 35.749924,95.402809 34.197014,88.426636 
	C37.035049,87.288567 38.537300,88.508835 38.975368,91.635757 
z"/>
<path fill="#2267BB" opacity="1.000000" stroke="none" 
	d="
M8.410250,64.999374 
	C9.093859,62.694077 10.184630,60.388763 11.636883,58.039688 
	C12.967481,59.192688 13.936599,60.389454 14.905716,61.586220 
	C12.876283,62.723934 10.846848,63.861645 8.410250,64.999374 
z"/>
<path fill="#265FB6" opacity="1.000000" stroke="none" 
	d="
M18.683315,78.082886 
	C20.043932,82.391335 21.040665,86.753944 22.068563,91.528465 
	C21.636238,91.956894 21.172747,91.973419 20.361721,91.989944 
	C19.455015,91.231476 18.556217,90.537308 18.398251,89.702888 
	C17.851894,86.816948 17.446859,83.890167 17.245968,80.961235 
	C17.183376,80.048676 17.938595,79.080025 18.683315,78.082886 
z"/>
<path fill="#2361BA" opacity="1.000000" stroke="none" 
	d="
M40.067524,85.571915 
	C39.320988,84.195312 38.926472,82.846268 38.484283,81.334206 
	C42.602772,82.016243 42.602772,82.016243 40.067524,85.571915 
z"/>
<path fill="#265FB6" opacity="1.000000" stroke="none" 
	d="
M27.181831,113.234009 
	C29.232506,120.962166 31.272913,129.133728 33.111340,137.350510 
	C33.640686,139.716385 34.390793,141.359650 37.283348,141.403671 
	C36.278179,141.808487 35.137962,141.903641 33.997749,141.998779 
	C33.337051,140.947052 32.065010,139.857513 32.127277,138.850479 
	C32.335926,135.476059 30.246651,134.192184 27.367287,133.034439 
	C26.258125,131.384048 25.352293,129.827881 24.820797,128.152924 
	C24.400200,126.827469 23.806330,124.514328 24.376333,124.085892 
	C28.160957,121.241287 26.646521,117.248322 27.181831,113.234009 
z"/>
<path fill="#265FB6" opacity="1.000000" stroke="none" 
	d="
M22.042004,92.342361 
	C23.764776,98.565407 25.466591,105.224564 27.260105,112.266495 
	C26.155254,114.844391 24.958704,117.039520 23.790745,119.182198 
	C22.661903,116.641716 21.384686,113.876373 20.224352,111.062836 
	C19.995447,110.507790 19.970306,109.347839 20.266731,109.173531 
	C26.888996,105.279449 21.941162,99.950050 22.051664,95.272118 
	C22.071283,94.441612 22.032736,93.609726 22.042004,92.342361 
z"/>
<path fill="#1856B9" opacity="1.000000" stroke="none" 
	d="
M34.022640,142.319183 
	C35.137962,141.903641 36.278179,141.808487 37.679840,141.493134 
	C38.414455,141.237320 38.887619,141.201721 40.010609,141.453827 
	C43.092171,141.586746 45.523907,141.431961 47.955643,141.277161 
	C48.125557,141.220520 48.295471,141.163879 49.039619,141.182953 
	C53.959297,142.383133 50.666164,137.459656 53.327042,136.844055 
	C59.263271,135.251846 55.526756,130.184891 57.090725,126.316597 
	C59.855846,128.529312 57.771042,134.376587 62.995506,133.330078 
	C63.002617,134.114517 63.006256,134.562744 63.008759,135.457031 
	C63.338158,138.936218 63.668686,141.969345 63.955124,145.366394 
	C63.432800,146.366653 63.090267,147.313828 62.455254,147.591034 
	C56.373886,150.245911 53.616047,156.690231 48.164871,160.044281 
	C47.982849,160.156265 48.047955,160.669922 47.551895,160.996887 
	C44.365055,160.714310 41.574627,159.990433 38.899410,160.291245 
	C36.857643,160.520798 34.961842,162.048538 33.000557,162.999390 
	C33.000000,163.000000 32.999924,163.004272 32.531723,163.003265 
	C26.038805,163.339142 20.014090,163.676010 13.600586,164.055786 
	C11.131152,164.414444 9.050505,164.730194 6.971858,165.034882 
	C6.973858,165.023819 6.983630,165.005783 6.983630,165.005783 
	C7.401014,160.924637 8.582628,158.303680 13.645955,157.618195 
	C17.408669,157.108795 20.826750,154.041489 24.393692,152.104950 
	C25.653141,151.421173 26.844339,150.253876 28.160627,150.097366 
	C32.759155,149.550629 33.668320,146.366302 34.022640,142.319183 
z"/>
<path fill="#294E8E" opacity="1.000000" stroke="none" 
	d="
M5.030925,165.820190 
	C3.966561,164.483368 2.902199,163.146545 1.839124,161.466568 
	C2.866352,162.188095 3.892293,163.252777 4.957507,164.870163 
	C4.996780,165.422867 5.030926,165.820190 5.030925,165.820190 
z"/>
<path fill="#395591" opacity="1.000000" stroke="none" 
	d="
M5.134272,166.111023 
	C5.030926,165.820190 4.996780,165.422867 5.004225,165.224045 
	C5.450016,165.019775 5.888362,165.014343 6.655169,165.007339 
	C6.983630,165.005783 6.973858,165.023819 6.982290,165.346466 
	C7.021739,166.083984 7.052755,166.498871 7.083771,166.913742 
	C7.083771,166.913742 6.982542,167.018799 6.932306,167.071808 
	C6.333919,166.883835 5.785769,166.642838 5.134272,166.111023 
z"/>
<path fill="#2065C3" opacity="1.000000" stroke="none" 
	d="
M34.004581,51.458092 
	C36.032631,51.063046 38.069279,51.045406 40.655861,51.283573 
	C41.472965,52.023724 41.740131,52.508064 42.007298,52.992405 
	C39.134739,54.042999 35.867523,57.820663 34.004581,51.458092 
z"/>
<path fill="#3469B9" opacity="1.000000" stroke="none" 
	d="
M42.408913,52.992516 
	C41.740131,52.508064 41.472965,52.023724 41.092049,51.287125 
	C44.259449,51.056160 47.540607,51.076591 50.821526,51.116795 
	C50.843647,51.117065 50.912796,51.502022 50.875004,51.519085 
	C50.474701,51.699780 50.057133,51.842232 49.317459,51.998383 
	C46.930576,52.331909 44.870556,52.662270 42.408913,52.992516 
z"/>
<path fill="#3469B9" opacity="1.000000" stroke="none" 
	d="
M9.245260,52.007278 
	C14.020288,51.668625 19.050333,51.336399 24.548443,51.013474 
	C22.627562,51.352985 20.238617,51.683201 16.983566,52.012085 
	C14.081760,52.015396 12.046061,52.020039 10.010361,52.024681 
	C9.840333,52.021027 9.670306,52.017365 9.245260,52.007278 
z"/>
<path fill="#2065C3" opacity="1.000000" stroke="none" 
	d="
M10.268997,52.299274 
	C12.046061,52.020039 14.081760,52.015396 16.553209,52.017204 
	C14.835183,52.207058 12.681409,52.390461 10.268997,52.299274 
z"/>
<path fill="#205E99" opacity="1.000000" stroke="none" 
	d="
M119.029160,55.007019 
	C117.709183,53.573910 116.389206,52.140800 115.033234,50.354950 
	C118.842369,49.520130 122.132706,50.243935 124.024155,54.521843 
	C124.079903,54.914165 123.978546,55.022690 123.566177,55.008865 
	C121.778931,54.999035 120.404045,55.003029 119.029160,55.007019 
z"/>
<path fill="#205E99" opacity="1.000000" stroke="none" 
	d="
M125.651047,55.052471 
	C125.948975,55.529232 125.950867,55.965153 125.624886,56.667313 
	C124.857529,56.296593 124.418037,55.659641 123.978546,55.022690 
	C123.978546,55.022690 124.079903,54.914165 124.130661,54.857185 
	C124.572624,54.870682 124.963821,54.941158 125.651047,55.052471 
z"/>
<path fill="#0A2F69" opacity="1.000000" stroke="none" 
	d="
M57.425579,177.978241 
	C56.485924,174.431351 58.451523,173.941650 61.425304,173.959549 
	C77.680382,174.057388 93.936745,174.058014 110.191734,173.951385 
	C113.301323,173.931000 116.514824,173.650360 119.474052,172.784561 
	C121.279678,172.256287 122.691078,170.380569 124.634888,169.047638 
	C124.260841,177.743637 120.888176,180.149689 111.486267,179.384537 
	C106.213028,178.955383 100.891724,179.132721 95.593102,178.996567 
	C83.021141,178.673538 70.449799,178.326508 57.425579,177.978241 
z"/>
<path fill="#184A82" opacity="1.000000" stroke="none" 
	d="
M123.566177,55.008865 
	C124.418037,55.659641 124.857529,56.296593 125.603531,56.994438 
	C125.937569,74.058838 125.965073,91.062355 126.032669,108.533493 
	C126.072754,109.001129 125.953262,109.013809 125.491562,109.012772 
	C123.385208,109.020317 121.740547,109.028893 120.060104,108.566177 
	C119.993568,102.060471 119.962814,96.026070 119.954941,89.542763 
	C119.958557,86.394943 119.939285,83.696014 119.920013,80.997093 
	C119.940491,75.972336 119.960960,70.947571 119.981827,65.211044 
	C119.982208,64.499268 119.956833,64.009346 119.956833,64.009346 
	C119.964966,62.941399 119.973099,61.873447 119.953735,60.405937 
	C119.714363,58.568523 119.502502,57.130672 119.159897,55.349922 
	C120.404045,55.003029 121.778931,54.999035 123.566177,55.008865 
z"/>
<path fill="#0D3873" opacity="1.000000" stroke="none" 
	d="
M120.095886,109.037468 
	C121.740547,109.028893 123.385208,109.020317 125.432877,109.025635 
	C125.875244,126.736885 125.914597,144.434235 125.910500,162.607910 
	C124.163193,163.045151 122.459335,163.006104 120.352150,162.516327 
	C119.656456,159.382324 119.364082,156.699051 119.076630,153.568024 
	C119.077927,150.450409 119.074310,147.780502 119.345688,144.804596 
	C119.724396,141.661285 119.828102,138.823990 119.951920,135.519684 
	C119.954895,129.033310 119.937775,123.013977 119.945236,116.619507 
	C119.958771,115.492943 119.947723,114.741516 119.965767,113.616173 
	C119.977524,112.492249 119.960197,111.742249 119.968796,110.666290 
	C120.028442,109.906052 120.062164,109.471764 120.095886,109.037468 
z"/>
<path fill="#1348AE" opacity="1.000000" stroke="none" 
	d="
M119.071701,154.015762 
	C119.364082,156.699051 119.656456,159.382324 119.923553,162.484497 
	C117.815102,164.176880 115.731926,165.450363 112.865082,166.862152 
	C107.052742,166.993759 102.024071,166.987030 97.036247,166.619095 
	C100.844872,163.289474 104.380753,159.937012 108.455383,157.476852 
	C111.593307,155.582260 114.512115,151.937531 119.071701,154.015762 
z"/>
<path fill="#2450A7" opacity="1.000000" stroke="none" 
	d="
M96.995399,166.980316 
	C102.024071,166.987030 107.052742,166.993759 112.550171,167.003448 
	C111.315910,167.352997 109.614647,167.990906 107.909622,168.001129 
	C90.709831,168.104202 73.509422,168.104507 55.897980,168.241425 
	C55.258327,168.267120 55.029888,168.185089 54.451195,168.004791 
	C54.100941,167.906525 54.027107,167.461777 54.260990,166.955078 
	C60.328644,166.303284 66.162415,166.158203 72.294403,166.304886 
	C80.726875,166.724548 88.861137,166.852432 96.995399,166.980316 
z"/>
<path fill="#1650B6" opacity="1.000000" stroke="none" 
	d="
M71.996185,166.013107 
	C66.162415,166.158203 60.328644,166.303284 54.244473,166.730255 
	C53.551331,167.009033 53.108589,167.005905 52.165596,166.753662 
	C51.109108,166.332062 50.552872,166.159607 49.870487,165.693832 
	C49.496223,164.599747 49.248112,163.798950 49.091728,162.748627 
	C48.788261,161.998154 48.393063,161.497253 47.997864,160.996338 
	C48.047955,160.669922 47.982849,160.156265 48.164871,160.044281 
	C53.616047,156.690231 56.373886,150.245911 62.455254,147.591034 
	C63.090267,147.313828 63.432800,146.366653 64.356186,145.365295 
	C65.870789,144.996292 66.940224,144.992294 68.251907,144.834045 
	C69.665924,144.113342 70.837700,143.546890 72.331665,142.843750 
	C76.312431,143.099304 79.974228,143.464096 83.628525,143.892807 
	C86.357140,144.212921 88.881744,144.189133 90.328468,141.026596 
	C92.489143,142.321304 94.301765,143.579285 95.831474,144.640900 
	C98.412773,142.255859 100.684181,140.157135 103.022789,137.996338 
	C100.676498,137.996338 98.837791,137.996338 96.999268,137.542633 
	C97.001465,134.060318 97.003479,131.031677 97.392136,128.008591 
	C101.358185,127.444588 104.921135,126.708092 108.521698,126.352783 
	C112.069260,126.002716 113.432709,124.280426 113.023033,120.816772 
	C112.768906,118.668259 113.050667,116.740547 116.001816,117.331825 
	C116.003418,118.108932 116.004440,118.552986 116.003845,119.460587 
	C116.001846,123.949409 116.001442,127.974709 115.618652,132.050568 
	C114.435997,134.394592 114.246574,137.284668 112.709457,138.858459 
	C109.417564,142.228882 105.834381,145.933197 101.618149,147.617615 
	C96.906372,149.500000 91.349815,149.224075 86.187401,150.052536 
	C84.869568,150.263992 82.506081,151.270126 82.558647,151.622360 
	C83.459587,157.660126 78.602409,156.988297 75.294350,158.091812 
	C73.320778,158.750183 71.477142,159.294617 72.464256,162.200333 
	C72.835190,163.292236 72.182312,164.731964 71.996185,166.013107 
z"/>
<path fill="#1155C2" opacity="1.000000" stroke="none" 
	d="
M13.989372,164.012878 
	C20.014090,163.676010 26.038805,163.339142 32.531990,163.391205 
	C32.994663,164.807785 32.988865,165.835449 32.983070,166.863113 
	C27.642618,166.897308 22.302164,166.931488 16.448734,166.655853 
	C15.286963,165.568314 14.638168,164.790588 13.989372,164.012878 
z"/>
<path fill="#174EBF" opacity="1.000000" stroke="none" 
	d="
M33.419518,166.904175 
	C32.988865,165.835449 32.994663,164.807785 33.000191,163.392197 
	C32.999924,163.004272 33.000000,163.000000 33.467285,162.999603 
	C38.956379,162.998856 43.978188,162.998505 48.999996,162.998169 
	C49.248112,163.798950 49.496223,164.599747 49.865013,165.938980 
	C49.985695,166.477432 49.972420,166.967346 49.972420,166.967346 
	C47.287941,166.966385 44.603458,166.965424 41.372955,166.799316 
	C40.543324,166.741699 40.259712,166.849243 39.976097,166.956787 
	C37.936054,166.952942 35.896011,166.949081 33.419518,166.904175 
z"/>
<path fill="#2450A7" opacity="1.000000" stroke="none" 
	d="
M13.600586,164.055786 
	C14.638168,164.790588 15.286963,165.568314 15.983068,166.653687 
	C13.343097,166.964081 10.655815,166.966827 7.526152,166.941650 
	C7.052755,166.498871 7.021739,166.083984 6.980289,165.357529 
	C9.050505,164.730194 11.131152,164.414444 13.600586,164.055786 
z"/>
<path fill="#2450A7" opacity="1.000000" stroke="none" 
	d="
M50.310532,166.983582 
	C49.972420,166.967346 49.985695,166.477432 49.991165,166.232285 
	C50.552872,166.159607 51.109108,166.332062 51.833496,166.749298 
	C51.550644,166.996002 51.099644,166.997910 50.310532,166.983582 
z"/>
<path fill="#2450A7" opacity="1.000000" stroke="none" 
	d="
M40.238178,166.968216 
	C40.259712,166.849243 40.543324,166.741699 40.925571,166.793213 
	C40.849560,166.961395 40.674908,166.970520 40.238178,166.968216 
z"/>
<path fill="#F4F9FB" opacity="1.000000" stroke="none" 
	d="
M52.990837,82.986023 
	C52.987068,82.540794 52.983307,82.095558 53.399918,81.391319 
	C54.587776,81.985977 55.355270,82.839638 55.954033,83.505630 
	C56.824440,81.853897 57.229057,79.679695 58.340992,79.221313 
	C62.965340,77.314987 66.415787,79.712067 67.047813,84.697197 
	C67.241402,86.224136 67.790428,87.706009 68.212097,89.346268 
	C69.082565,88.703072 69.596397,88.323402 70.351753,88.227737 
	C71.649704,92.497353 72.706123,96.482956 73.738083,100.614044 
	C73.713631,100.759529 73.916138,100.974113 73.898140,101.385712 
	C75.449768,108.455864 77.019394,115.114426 78.589020,121.772987 
	C79.018333,121.847031 79.447647,121.921074 79.876961,121.995117 
	C82.742165,115.684570 83.188309,108.652794 84.876816,101.556839 
	C85.501839,98.170807 86.018921,95.187195 86.536003,92.203575 
	C86.760864,87.814209 86.985733,83.424843 87.559402,78.664169 
	C88.319550,77.983330 88.730896,77.673782 89.583221,77.241989 
	C93.873566,77.119736 97.722939,77.119736 101.831947,77.119736 
	C101.611244,78.528854 101.417557,79.765495 101.144531,81.250748 
	C101.338577,81.935081 101.611961,82.370789 101.885345,82.806496 
	C101.053543,84.639877 100.221741,86.473259 99.203735,89.042099 
	C97.715805,98.519875 96.414085,107.262177 95.011215,116.258789 
	C94.889664,116.874657 94.869270,117.236229 94.448593,117.646973 
	C92.761459,121.467041 91.474602,125.237946 90.112045,129.344589 
	C90.072617,130.135513 90.108894,130.590714 90.062912,131.251740 
	C89.980652,131.457596 89.888390,131.891251 89.567642,132.076187 
	C85.904381,141.131332 85.904343,141.137619 76.505890,141.085129 
	C75.019905,141.076843 73.534401,140.982468 72.029770,140.536896 
	C71.028702,137.400650 70.046539,134.655411 69.056168,131.929962 
	C69.047974,131.949738 69.087524,131.927551 69.061676,131.498169 
	C67.541809,118.779327 64.372078,106.918922 60.494507,93.913063 
	C58.707535,98.644104 57.483913,101.883675 55.959133,104.913925 
	C55.032516,103.439079 54.407059,102.173561 53.781597,100.908035 
	C53.143326,101.260056 52.505054,101.612076 51.866779,101.964104 
	C53.192841,103.931465 54.518902,105.898827 55.986309,108.192574 
	C55.739594,110.345741 55.351528,112.172531 54.963470,113.999321 
	C54.480240,114.378464 53.997009,114.757599 54.370010,114.464943 
	C52.241051,111.624802 50.140594,108.822685 47.681561,106.012024 
	C47.985115,102.917320 48.647243,99.831169 49.793900,96.229095 
	C50.516567,94.137405 50.754704,92.561646 50.992840,90.985878 
	C51.002659,90.817665 51.012482,90.649452 51.474144,90.143143 
	C52.280930,87.532043 52.635883,85.259033 52.990837,82.986023 
M52.201458,99.606667 
	C52.205673,99.213615 52.209888,98.820564 52.214104,98.427513 
	C52.051006,98.425980 51.746151,98.413506 51.745304,98.424507 
	C51.715103,98.815613 51.713371,99.208916 52.201458,99.606667 
z"/>
<path fill="#215DBE" opacity="1.000000" stroke="none" 
	d="
M56.260284,105.123238 
	C57.483913,101.883675 58.707535,98.644104 60.494507,93.913063 
	C64.372078,106.918922 67.541809,118.779327 68.655014,131.512177 
	C62.403309,131.496857 66.747429,125.767273 62.992031,122.680672 
	C62.992031,126.750122 62.992031,129.872009 62.992031,132.993896 
	C57.771042,134.376587 59.855846,128.529312 57.090725,126.316597 
	C55.526756,130.184891 59.263271,135.251846 53.281075,136.516144 
	C52.237453,135.871429 51.571442,135.410919 50.905434,134.950424 
	C51.024841,133.787842 51.144249,132.625259 51.751572,131.110474 
	C52.192280,130.171829 52.145069,129.585403 52.097858,128.998978 
	C53.076630,124.271904 54.055401,119.544838 54.998821,114.408539 
	C55.351528,112.172531 55.739594,110.345741 56.036385,107.922462 
	C56.050171,106.591728 56.155228,105.857483 56.260284,105.123238 
M61.000500,111.573029 
	C61.135128,113.520935 61.269756,115.468849 61.404385,117.416756 
	C61.761684,117.370964 62.118980,117.325165 62.476280,117.279373 
	C62.476280,113.748306 62.476280,110.217239 62.476280,106.686180 
	C62.109818,106.666901 61.743355,106.647621 61.376896,106.628342 
	C61.250713,107.982849 61.124535,109.337357 61.000500,111.573029 
z"/>
<path fill="#1E5FBA" opacity="1.000000" stroke="none" 
	d="
M39.069706,110.433670 
	C39.544907,110.020615 39.960110,110.012840 40.686768,110.003448 
	C40.998226,110.001831 41.000000,110.000000 41.022568,110.315277 
	C42.033031,111.418846 43.020927,112.207146 44.008820,112.995445 
	C44.227341,113.012886 44.445862,113.030319 44.991173,113.084595 
	C44.436012,116.471664 43.554062,119.821877 42.672112,123.172096 
	C42.253551,123.139618 41.834991,123.107147 41.416435,123.074669 
	C40.614189,118.996094 39.811947,114.917526 39.069706,110.433670 
z"/>
<path fill="#FBFDED" opacity="1.000000" stroke="none" 
	d="
M30.988811,103.446899 
	C30.268785,104.264183 29.557060,104.676186 28.845333,105.088188 
	C28.397980,104.054276 27.677475,103.048103 27.569023,101.979782 
	C27.416626,100.478554 27.665794,98.922707 27.907429,97.416550 
	C27.931908,97.263962 29.540064,97.072662 29.635807,97.272270 
	C30.216021,98.481873 30.632626,99.783592 30.972692,101.088722 
	C31.132044,101.700294 30.998121,102.388268 30.988811,103.446899 
z"/>
<path fill="#265FB6" opacity="1.000000" stroke="none" 
	d="
M50.677948,135.220703 
	C51.571442,135.410919 52.237453,135.871429 52.949429,136.659851 
	C50.666164,137.459656 53.959297,142.383133 49.302605,141.128082 
	C49.477730,139.162003 49.964096,137.326477 50.677948,135.220703 
z"/>
<path fill="#265FB6" opacity="1.000000" stroke="none" 
	d="
M47.523418,141.191910 
	C45.523907,141.431961 43.092171,141.586746 40.362396,141.518738 
	C42.406635,141.232864 44.748913,141.169769 47.523418,141.191910 
z"/>
<path fill="#265FB6" opacity="1.000000" stroke="none" 
	d="
M51.982304,129.307037 
	C52.145069,129.585403 52.192280,130.171829 51.972847,130.837433 
	C51.759716,130.482758 51.813232,130.048935 51.982304,129.307037 
z"/>
<path fill="#1957BA" opacity="1.000000" stroke="none" 
	d="
M95.112366,116.004486 
	C96.414085,107.262177 97.715805,98.519875 99.155838,89.390045 
	C99.844322,89.470230 100.394501,89.937927 100.973511,91.035706 
	C101.003395,92.110153 101.004440,92.554527 101.005486,92.998901 
	C98.785927,96.694771 100.794891,97.245171 103.921814,96.859482 
	C105.995422,96.603706 108.053848,96.224899 110.999489,95.763161 
	C110.999489,94.277161 110.999489,92.070908 111.353508,89.468887 
	C113.188484,90.145172 114.669434,91.217216 116.132652,92.276421 
	C117.278259,91.587509 118.605156,90.789581 119.932053,89.991653 
	C119.962814,96.026070 119.993568,102.060471 120.060104,108.566177 
	C120.062164,109.471764 120.028442,109.906052 119.643341,110.672623 
	C118.677536,111.345634 118.063110,111.686363 117.448685,112.027092 
	C118.278015,112.681427 119.107353,113.335754 119.936684,113.990089 
	C119.947723,114.741516 119.958771,115.492943 119.625725,116.671875 
	C118.189568,117.731934 117.097511,118.364487 116.005455,118.997040 
	C116.004440,118.552986 116.003418,118.108932 115.996552,116.960732 
	C115.649635,114.344749 115.512955,112.475731 112.646698,114.169022 
	C111.356773,114.931068 109.405479,115.231194 107.936417,114.909393 
	C103.491646,113.935738 99.268326,114.240761 95.112366,116.004486 
z"/>
<path fill="#1F5CBD" opacity="1.000000" stroke="none" 
	d="
M84.768883,101.959244 
	C83.188309,108.652794 82.742165,115.684570 79.876961,121.995117 
	C79.447647,121.921074 79.018333,121.847031 78.589020,121.772987 
	C77.019394,115.114426 75.449768,108.455864 74.172348,101.555618 
	C75.145744,102.310280 75.826927,103.306625 77.178406,105.283394 
	C77.133751,100.747520 81.802917,97.479584 77.004425,93.559448 
	C77.001938,91.078041 77.000816,89.034142 76.999115,86.744278 
	C76.998535,86.498322 76.998169,86.006409 77.331329,86.004425 
	C78.108650,86.000000 78.552795,85.997559 78.996948,85.995117 
	C80.087540,86.994904 81.178123,87.994690 82.593399,89.370926 
	C82.395714,93.836441 81.873344,97.925514 81.450821,101.232971 
	C82.622917,101.489525 83.695900,101.724380 84.768883,101.959244 
z"/>
<path fill="#245EBE" opacity="1.000000" stroke="none" 
	d="
M76.998169,86.006409 
	C76.998169,86.006409 76.998535,86.498322 76.618324,86.827255 
	C75.823982,89.433594 75.409851,91.710999 74.703049,94.275055 
	C74.194435,96.530655 73.978493,98.499603 73.762543,100.468559 
	C72.706123,96.482956 71.649704,92.497353 70.343666,87.814957 
	C69.715767,84.097610 69.337486,81.077057 68.959198,78.056511 
	C68.071388,76.901459 67.183578,75.746399 66.144257,74.296066 
	C67.098061,73.669670 68.203392,73.338539 69.661148,73.004463 
	C70.453888,73.002686 70.894203,73.003845 71.702957,73.361931 
	C73.713661,77.814713 75.355919,81.910561 76.998169,86.006409 
z"/>
<path fill="#1D5EC0" opacity="1.000000" stroke="none" 
	d="
M119.954941,89.542755 
	C118.605156,90.789581 117.278259,91.587509 116.132652,92.276421 
	C114.669434,91.217216 113.188484,90.145172 111.352600,89.036087 
	C109.986534,87.019852 108.975380,85.040649 107.863365,82.864021 
	C110.982033,81.128174 114.849342,80.206154 111.865402,75.232895 
	C112.450264,75.281563 113.035126,75.330231 113.619995,75.378891 
	C114.265572,77.597549 114.911148,79.816208 115.658730,82.385414 
	C116.736481,81.969559 117.972916,81.492470 119.564682,81.006241 
	C119.939285,83.696014 119.958557,86.394943 119.954941,89.542755 
z"/>
<path fill="#2062BD" opacity="1.000000" stroke="none" 
	d="
M101.223869,81.002129 
	C101.417557,79.765495 101.611244,78.528854 101.831947,77.119736 
	C97.722939,77.119736 93.873566,77.119736 89.537704,76.900940 
	C89.030731,76.453766 89.010269,76.225372 88.989799,75.996979 
	C89.175713,74.543304 89.361626,73.089630 89.568977,71.468399 
	C92.105911,70.623764 94.123314,70.554840 94.185463,74.849182 
	C95.235939,75.329674 96.101883,75.162476 96.967827,74.995285 
	C98.636276,74.732910 101.434471,73.789642 101.763016,74.334793 
	C102.780861,76.023651 102.859200,78.278725 102.855911,80.656548 
	C102.014366,81.000092 101.619118,81.001114 101.223869,81.002129 
z"/>
<path fill="#1A62B7" opacity="1.000000" stroke="none" 
	d="
M77.331329,86.004425 
	C75.355919,81.910561 73.713661,77.814713 72.033340,73.362793 
	C72.319168,72.903702 72.581604,72.715134 73.291733,72.220703 
	C74.867264,72.000244 75.933632,72.000122 77.041626,72.320267 
	C77.720528,73.095787 78.357811,73.551048 78.995094,74.006302 
	C78.996025,77.695923 78.996956,81.385544 78.997421,85.535141 
	C78.552795,85.997559 78.108650,86.000000 77.331329,86.004425 
z"/>
<path fill="#2062BD" opacity="1.000000" stroke="none" 
	d="
M87.132278,66.999336 
	C91.872932,66.532562 96.158798,66.065758 100.489105,65.594101 
	C97.944695,69.307037 88.385406,70.497131 81.627464,67.272194 
	C83.310806,67.181229 84.994148,67.090263 87.132278,66.999336 
z"/>
<path fill="#195AAC" opacity="1.000000" stroke="none" 
	d="
M84.876816,101.556831 
	C83.695900,101.724380 82.622917,101.489525 81.450821,101.232971 
	C81.873344,97.925514 82.395714,93.836441 82.957748,89.376999 
	C83.962593,89.976265 84.927780,90.945923 86.214478,92.059570 
	C86.018921,95.187195 85.501839,98.170807 84.876816,101.556831 
z"/>
<path fill="#1D5EC0" opacity="1.000000" stroke="none" 
	d="
M112.999474,67.000610 
	C112.414604,68.299789 111.829735,69.598961 111.244858,70.898140 
	C110.294083,70.428787 108.477249,69.725967 108.530792,69.527344 
	C108.926445,68.059616 109.694778,66.692352 110.714722,65.467148 
	C111.722176,66.094070 112.360825,66.547340 112.999474,67.000610 
z"/>
<path fill="#1D5EC0" opacity="1.000000" stroke="none" 
	d="
M101.144531,81.250748 
	C101.619118,81.001114 102.014366,81.000092 102.706070,80.996010 
	C103.885399,82.973000 104.768272,84.953056 105.651138,86.933113 
	C105.053848,87.181107 104.456558,87.429100 103.859276,87.677101 
	C103.300789,86.278168 102.742302,84.879242 102.034584,83.143402 
	C101.611961,82.370789 101.338577,81.935081 101.144531,81.250748 
z"/>
<path fill="#2062BD" opacity="1.000000" stroke="none" 
	d="
M84.354691,72.541428 
	C83.906075,73.484009 83.189919,74.173363 82.473763,74.862724 
	C82.076645,74.296783 81.679527,73.730843 81.282410,73.164902 
	C82.217323,72.872665 83.152237,72.580429 84.354691,72.541428 
z"/>
<path fill="#1D5EC0" opacity="1.000000" stroke="none" 
	d="
M106.965736,92.889801 
	C106.226746,92.625267 105.663376,92.071075 105.099998,91.516891 
	C105.666946,91.086700 106.233894,90.656509 106.800842,90.226318 
	C106.914345,91.017593 107.027847,91.808868 106.965736,92.889801 
z"/>
<path fill="#2062BD" opacity="1.000000" stroke="none" 
	d="
M113.113869,66.722694 
	C112.360825,66.547340 111.722176,66.094070 111.041336,65.320404 
	C111.851234,64.896248 112.703339,64.792496 113.555435,64.688736 
	C113.446381,65.274086 113.337318,65.859428 113.113869,66.722694 
z"/>
<path fill="#2062BD" opacity="1.000000" stroke="none" 
	d="
M76.952377,71.669685 
	C75.933632,72.000122 74.867264,72.000244 73.401062,72.000793 
	C74.302399,71.780602 75.603569,71.559990 76.952377,71.669685 
z"/>
<path fill="#1D5EC0" opacity="1.000000" stroke="none" 
	d="
M112.045593,59.313633 
	C112.468147,58.681232 112.936302,58.361549 113.702225,58.021088 
	C113.687950,58.844429 113.375900,59.688549 113.063850,60.532669 
	C112.739632,60.230564 112.415413,59.928455 112.045593,59.313633 
z"/>
<path fill="#1D5EC0" opacity="1.000000" stroke="none" 
	d="
M88.644241,76.002914 
	C89.010269,76.225372 89.030731,76.453766 89.096725,77.023193 
	C88.730896,77.673782 88.319550,77.983330 87.623291,78.246964 
	C87.658485,77.470322 87.978584,76.739586 88.644241,76.002914 
z"/>
<path fill="#1D5EC0" opacity="1.000000" stroke="none" 
	d="
M101.303223,92.960327 
	C101.004440,92.554527 101.003395,92.110153 101.004074,91.332474 
	C101.522041,91.233215 102.038284,91.467255 102.554527,91.701294 
	C102.236671,92.108116 101.918816,92.514938 101.303223,92.960327 
z"/>
<path fill="#2062BD" opacity="1.000000" stroke="none" 
	d="
M78.955338,73.684952 
	C78.357811,73.551048 77.720528,73.095787 77.041626,72.320267 
	C77.638527,72.454536 78.277046,72.909073 78.955338,73.684952 
z"/>
<path fill="#1D5EC0" opacity="1.000000" stroke="none" 
	d="
M96.598373,74.996918 
	C96.101883,75.162476 95.235939,75.329674 94.189957,75.247208 
	C94.749588,74.997894 95.489258,74.998222 96.598373,74.996918 
z"/>
<path fill="#2062BD" opacity="1.000000" stroke="none" 
	d="
M119.798447,64.097031 
	C119.956833,64.009346 119.982208,64.499268 119.964737,64.743729 
	C119.785522,64.824181 119.607201,64.672028 119.474991,64.486938 
	C119.445930,64.446251 119.580727,64.288544 119.798447,64.097031 
z"/>
<path fill="#EAF8F8" opacity="1.000000" stroke="none" 
	d="
M52.807892,83.083832 
	C52.635883,85.259033 52.280930,87.532043 51.561005,89.905785 
	C51.425571,88.581436 51.655113,87.156364 51.976288,85.102448 
	C52.122948,84.088341 52.177979,83.703072 52.233009,83.317795 
	C52.233009,83.317795 52.624943,83.181648 52.807892,83.083832 
z"/>
<path fill="#1764CF" opacity="1.000000" stroke="none" 
	d="
M44.008419,112.652023 
	C43.020927,112.207146 42.033031,111.418846 41.021690,110.316208 
	C43.040710,109.414833 44.490761,109.600777 44.008419,112.652023 
z"/>
<path fill="#2065C3" opacity="1.000000" stroke="none" 
	d="
M52.080818,83.023926 
	C52.177979,83.703072 52.122948,84.088341 51.940594,84.737579 
	C51.209538,83.909935 50.605804,82.818329 50.005898,81.360977 
	C50.649357,81.573517 51.288998,82.151787 52.080818,83.023926 
z"/>
<path fill="#EAF8F8" opacity="1.000000" stroke="none" 
	d="
M50.716606,91.203964 
	C50.754704,92.561646 50.516567,94.137405 49.977139,95.858643 
	C49.930687,94.476761 50.185532,92.949402 50.716606,91.203964 
z"/>
<path fill="#EAF8F8" opacity="1.000000" stroke="none" 
	d="
M68.582100,77.875015 
	C69.337486,81.077057 69.715767,84.097610 70.102135,87.530945 
	C69.596397,88.323402 69.082565,88.703072 68.212097,89.346268 
	C67.790428,87.706009 67.241402,86.224136 67.047813,84.697197 
	C66.415787,79.712067 62.965340,77.314987 58.340992,79.221313 
	C57.229057,79.679695 56.824440,81.853897 55.954033,83.505630 
	C55.355270,82.839638 54.587776,81.985977 53.497978,81.071655 
	C53.558521,79.627869 53.941368,78.244743 54.421608,76.509766 
	C59.176083,76.918091 63.690544,77.305809 68.582100,77.875015 
z"/>
<path fill="#1556AB" opacity="1.000000" stroke="none" 
	d="
M68.009666,144.988297 
	C66.940224,144.992294 65.870789,144.996292 64.400284,145.001389 
	C63.668686,141.969345 63.338158,138.936218 63.435341,135.453949 
	C65.571907,135.000458 67.280762,134.996063 68.962814,135.335876 
	C67.959961,137.453217 66.983910,139.226364 66.010178,141.353394 
	C66.674576,142.473145 67.336655,143.239014 68.002159,144.250732 
	C68.005577,144.496567 68.009666,144.988297 68.009666,144.988297 
z"/>
<path fill="#1252B0" opacity="1.000000" stroke="none" 
	d="
M49.091728,162.748627 
	C43.978188,162.998505 38.956379,162.998856 33.467842,162.998993 
	C34.961842,162.048538 36.857643,160.520798 38.899410,160.291245 
	C41.574627,159.990433 44.365055,160.714310 47.551895,160.996887 
	C48.393063,161.497253 48.788261,161.998154 49.091728,162.748627 
z"/>
<path fill="#0E5CB7" opacity="1.000000" stroke="none" 
	d="
M68.989616,134.991669 
	C67.280762,134.996063 65.571907,135.000458 63.436474,135.007904 
	C63.006256,134.562744 63.002617,134.114517 62.995506,133.330078 
	C62.992031,129.872009 62.992031,126.750122 62.992031,122.680672 
	C66.747429,125.767273 62.403309,131.496857 68.680862,131.941559 
	C69.087524,131.927551 69.047974,131.949738 69.035217,132.315063 
	C69.011513,133.450821 69.000565,134.221237 68.989616,134.991669 
z"/>
<path fill="#144DB3" opacity="1.000000" stroke="none" 
	d="
M72.294403,166.304886 
	C72.182312,164.731964 72.835190,163.292236 72.464256,162.200333 
	C71.477142,159.294617 73.320778,158.750183 75.294350,158.091812 
	C78.602409,156.988297 83.459587,157.660126 82.558647,151.622360 
	C82.506081,151.270126 84.869568,150.263992 86.187401,150.052536 
	C91.349815,149.224075 96.906372,149.500000 101.618149,147.617615 
	C105.834381,145.933197 109.417564,142.228882 112.709457,138.858459 
	C114.246574,137.284668 114.435997,134.394592 115.670242,132.388916 
	C117.069580,133.785904 118.034943,134.895081 119.000336,136.455872 
	C119.023811,139.641846 119.047249,142.376221 119.070686,145.110611 
	C119.074310,147.780502 119.077927,150.450409 119.076622,153.568024 
	C114.512115,151.937531 111.593307,155.582260 108.455383,157.476852 
	C104.380753,159.937012 100.844872,163.289474 97.036247,166.619095 
	C88.861137,166.852432 80.726875,166.724548 72.294403,166.304886 
z"/>
<path fill="#1A53B3" opacity="1.000000" stroke="none" 
	d="
M119.000305,136.004272 
	C118.034943,134.895081 117.069580,133.785904 116.052628,132.338348 
	C116.001442,127.974709 116.001846,123.949409 116.003845,119.460579 
	C117.097511,118.364487 118.189568,117.731934 119.601135,117.047012 
	C119.937775,123.013977 119.954895,129.033310 119.719421,135.525299 
	C119.466812,135.997955 119.000305,136.004272 119.000305,136.004272 
z"/>
<path fill="#1348AE" opacity="1.000000" stroke="none" 
	d="
M119.000336,136.455872 
	C119.000305,136.004272 119.466812,135.997955 119.699310,135.992340 
	C119.828102,138.823990 119.724396,141.661285 119.345688,144.804596 
	C119.047249,142.376221 119.023811,139.641846 119.000336,136.455872 
z"/>
<path fill="#1A53B3" opacity="1.000000" stroke="none" 
	d="
M119.965767,113.616173 
	C119.107353,113.335754 118.278015,112.681427 117.448685,112.027092 
	C118.063110,111.686363 118.677536,111.345634 119.617416,110.998573 
	C119.960197,111.742249 119.977524,112.492249 119.965767,113.616173 
z"/>
<path fill="#1752B7" opacity="1.000000" stroke="none" 
	d="
M95.011215,116.258789 
	C99.268326,114.240761 103.491646,113.935738 107.936417,114.909393 
	C109.405479,115.231194 111.356773,114.931068 112.646698,114.169022 
	C115.512955,112.475731 115.649635,114.344749 115.995956,116.627686 
	C113.050667,116.740547 112.768906,118.668259 113.023033,120.816772 
	C113.432709,124.280426 112.069260,126.002716 108.521698,126.352783 
	C104.921135,126.708092 101.358185,127.444588 97.389847,127.574142 
	C96.329590,124.751099 95.658257,122.368027 94.981148,119.586357 
	C94.933205,118.657768 94.891045,118.127785 94.848877,117.597801 
	C94.869270,117.236229 94.889664,116.874657 95.011215,116.258789 
z"/>
<path fill="#164FB8" opacity="1.000000" stroke="none" 
	d="
M96.999084,137.996338 
	C98.837791,137.996338 100.676498,137.996338 103.022789,137.996338 
	C100.684181,140.157135 98.412773,142.255859 95.831474,144.640900 
	C94.301765,143.579285 92.489143,142.321304 90.332191,140.610596 
	C89.999268,138.770111 90.010689,137.382355 90.281677,135.893829 
	C91.029533,135.526443 91.517822,135.259811 92.266418,135.168732 
	C93.349571,135.895172 94.172401,136.446030 95.163544,137.241852 
	C95.887596,137.656647 96.443344,137.826492 96.999084,137.996338 
z"/>
<path fill="#2D579F" opacity="1.000000" stroke="none" 
	d="
M90.022102,135.994598 
	C90.010689,137.382355 89.999268,138.770111 89.984131,140.573853 
	C88.881744,144.189133 86.357140,144.212921 83.628525,143.892807 
	C79.974228,143.464096 76.312431,143.099304 72.333801,142.501709 
	C72.025398,141.840195 72.037041,141.384033 72.048676,140.927887 
	C73.534401,140.982468 75.019905,141.076843 76.505890,141.085129 
	C85.904343,141.137619 85.904381,141.131332 89.620102,132.126907 
	C89.993301,131.992691 90.098282,132.094070 90.062515,132.481750 
	C90.025200,133.911148 90.023651,134.952866 90.022102,135.994598 
z"/>
<path fill="#1555AC" opacity="1.000000" stroke="none" 
	d="
M96.999268,137.542633 
	C96.443344,137.826492 95.887596,137.656647 95.163971,136.778442 
	C94.997719,134.125137 95.001900,132.180222 95.000389,130.235291 
	C94.997734,126.818512 94.991600,123.401741 94.986923,119.984962 
	C95.658257,122.368027 96.329590,124.751099 97.003204,127.568604 
	C97.003479,131.031677 97.001465,134.060318 96.999268,137.542633 
z"/>
<path fill="#2554BC" opacity="1.000000" stroke="none" 
	d="
M72.029770,140.536896 
	C72.037041,141.384033 72.025398,141.840195 72.011612,142.638382 
	C70.837700,143.546890 69.665924,144.113342 68.251907,144.834045 
	C68.009666,144.988297 68.005577,144.496567 67.998192,143.896378 
	C67.329826,142.530624 66.668846,141.765076 66.007866,140.999512 
	C66.983910,139.226364 67.959961,137.453217 68.962814,135.335876 
	C69.000565,134.221237 69.011513,133.450821 69.043411,132.295288 
	C70.046539,134.655411 71.028702,137.400650 72.029770,140.536896 
z"/>
<path fill="#2055BC" opacity="1.000000" stroke="none" 
	d="
M94.981148,119.586357 
	C94.991600,123.401741 94.997734,126.818512 95.000389,130.235291 
	C95.001900,132.180222 94.997719,134.125137 94.995667,136.533478 
	C94.172401,136.446030 93.349571,135.895172 92.265472,134.794891 
	C92.002960,133.497299 92.001724,132.749130 91.997505,131.660294 
	C91.392265,130.549362 90.790001,129.779099 90.187737,129.008850 
	C91.474602,125.237946 92.761459,121.467041 94.448601,117.646973 
	C94.891045,118.127785 94.933205,118.657768 94.981148,119.586357 
z"/>
<path fill="#1161C6" opacity="1.000000" stroke="none" 
	d="
M73.738083,100.614044 
	C73.978493,98.499603 74.194435,96.530655 74.710419,94.621933 
	C75.373322,95.290108 75.736183,95.898041 76.099052,96.505974 
	C76.401299,95.669632 76.703552,94.833290 77.005798,93.996948 
	C81.802917,97.479584 77.133751,100.747520 77.178406,105.283394 
	C75.826927,103.306625 75.145744,102.310280 74.190353,101.144020 
	C73.916138,100.974113 73.713631,100.759529 73.738083,100.614044 
z"/>
<path fill="#F4FAFB" opacity="1.000000" stroke="none" 
	d="
M55.959129,104.913925 
	C56.155228,105.857483 56.050171,106.591728 55.895039,107.596085 
	C54.518902,105.898827 53.192841,103.931465 51.866779,101.964104 
	C52.505054,101.612076 53.143326,101.260056 53.781597,100.908035 
	C54.407059,102.173561 55.032516,103.439079 55.959129,104.913925 
z"/>
<path fill="#164FB8" opacity="1.000000" stroke="none" 
	d="
M90.112045,129.344589 
	C90.790001,129.779099 91.392265,130.549362 91.741585,131.658691 
	C91.318054,131.994995 91.147469,131.992218 90.891029,131.789673 
	C90.648277,131.332031 90.428276,131.150696 90.145172,131.045898 
	C90.108894,130.590714 90.072617,130.135513 90.112045,129.344589 
z"/>
<path fill="#F4FAFB" opacity="1.000000" stroke="none" 
	d="
M51.954556,99.604286 
	C51.713371,99.208916 51.715103,98.815613 51.745304,98.424507 
	C51.746151,98.413506 52.051006,98.425980 52.214104,98.427513 
	C52.209888,98.820564 52.205673,99.213615 51.954556,99.604286 
z"/>
<path fill="#2D579F" opacity="1.000000" stroke="none" 
	d="
M90.062912,131.251740 
	C90.428276,131.150696 90.648277,131.332031 90.670303,131.805389 
	C90.535431,132.020844 90.098282,132.094070 90.098282,132.094070 
	C90.098282,132.094070 89.993301,131.992691 89.940842,131.941971 
	C89.888390,131.891251 89.980652,131.457596 90.062912,131.251740 
z"/>
<path fill="#115FB4" opacity="1.000000" stroke="none" 
	d="
M60.999428,111.132446 
	C61.124535,109.337357 61.250713,107.982849 61.376896,106.628342 
	C61.743355,106.647621 62.109818,106.666901 62.476280,106.686180 
	C62.476280,110.217239 62.476280,113.748306 62.476280,117.279373 
	C62.118980,117.325165 61.761684,117.370964 61.404385,117.416756 
	C61.269756,115.468849 61.135128,113.520935 60.999428,111.132446 
z"/>
<path fill="#1A62B7" opacity="1.000000" stroke="none" 
	d="
M77.004425,93.559448 
	C76.703552,94.833290 76.401299,95.669632 76.099052,96.505974 
	C75.736183,95.898041 75.373322,95.290108 75.003098,94.335281 
	C75.409851,91.710999 75.823982,89.433594 76.618904,87.073212 
	C77.000816,89.034142 77.001938,91.078041 77.004425,93.559448 
z"/>
<path fill="#1650B6" opacity="1.000000" stroke="none" 
	d="
M66.010178,141.353394 
	C66.668846,141.765076 67.329826,142.530624 67.994774,143.650543 
	C67.336655,143.239014 66.674576,142.473145 66.010178,141.353394 
z"/>
<path fill="#1650B6" opacity="1.000000" stroke="none" 
	d="
M90.062515,132.481750 
	C90.098282,132.094070 90.535431,132.020844 90.756165,132.005127 
	C91.147469,131.992218 91.318054,131.994995 91.744568,131.999390 
	C92.001724,132.749130 92.002960,133.497299 92.005150,134.619308 
	C91.517822,135.259811 91.029533,135.526443 90.281677,135.893829 
	C90.023651,134.952866 90.025200,133.911148 90.062515,132.481750 
z"/>
</svg>